<svg xmlns="http://www.w3.org/2000/svg" width="20" height="20" viewBox="0 0 20 20" fill="none">
<path fill-rule="evenodd" clip-rule="evenodd" d="M19.0615 4.6868C19.0615 3.69251 18.6663 2.73849 17.963 2.0357C17.2602 1.33239 16.3062 0.937195 15.3119 0.937195H4.68735C3.69306 0.937195 2.73904 1.33239 2.03624 2.0357C1.33294 2.73849 0.937744 3.69251 0.937744 4.6868V15.3113C0.937744 16.3056 1.33294 17.2596 2.03624 17.9624C2.73904 18.6657 3.69306 19.0609 4.68735 19.0609H15.3119C16.3062 19.0609 17.2602 18.6657 17.963 17.9624C18.6663 17.2596 19.0615 16.3056 19.0615 15.3113V4.6868Z" fill="none"/>
<path fill-rule="evenodd" clip-rule="evenodd" d="M13.125 20H15.3125C16.5562 20 17.7469 19.5063 18.6281 18.6272C19.5062 17.7481 20 16.5556 20 15.3125C20 12.2013 20 7.79875 20 4.6875C20 3.44438 19.5062 2.25187 18.6281 1.37281C17.7469 0.49375 16.5562 0 15.3125 0H4.6875C3.44375 0 2.25313 0.49375 1.37188 1.37281C0.493755 2.25187 0 3.44438 0 4.6875V15.3125C0 16.5556 0.493755 17.7481 1.37188 18.6272C2.25313 19.5063 3.44375 20 4.6875 20H10.3125C10.8313 20 11.25 19.58 11.25 19.0625C11.25 18.545 10.8313 18.125 10.3125 18.125H4.6875C3.94062 18.125 3.225 17.8287 2.7 17.3013C2.17188 16.7738 1.875 16.0584 1.875 15.3125V4.6875C1.875 3.94156 2.17188 3.22625 2.7 2.69875C3.225 2.17125 3.94062 1.875 4.6875 1.875H15.3125C16.0594 1.875 16.775 2.17125 17.3 2.69875C17.8281 3.22625 18.125 3.94156 18.125 4.6875V15.3125C18.125 16.0584 17.8281 16.7738 17.3 17.3013C16.775 17.8287 16.0594 18.125 15.3125 18.125H13.125C12.6062 18.125 12.1875 18.545 12.1875 19.0625C12.1875 19.58 12.6062 20 13.125 20ZM9.0625 9.0625H4.6875C4.16875 9.0625 3.75 9.4825 3.75 10C3.75 10.5175 4.16875 10.9375 4.6875 10.9375H9.0625V15.3125C9.0625 15.83 9.48125 16.25 10 16.25C10.5188 16.25 10.9375 15.83 10.9375 15.3125V10.9375H15.3125C15.8313 10.9375 16.25 10.5175 16.25 10C16.25 9.4825 15.8313 9.0625 15.3125 9.0625H10.9375V4.6875C10.9375 4.17 10.5188 3.75 10 3.75C9.48125 3.75 9.0625 4.17 9.0625 4.6875V9.0625Z" fill="#25293D"/>
</svg>