<svg xmlns="http://www.w3.org/2000/svg" width="37" height="35" viewBox="0 0 37 35" fill="none">
<path d="M24.3513 35C23.8381 34.9958 23.3318 34.8812 22.8668 34.6642C22.4018 34.4471 21.989 34.1326 21.6565 33.742C21.2263 33.2506 20.6959 32.8567 20.1008 32.5869C19.5057 32.317 18.8598 32.1774 18.2062 32.1774C17.5527 32.1774 16.9068 32.317 16.3117 32.5869C15.7166 32.8567 15.1862 33.2506 14.7559 33.742C14.2541 34.313 13.5842 34.7106 12.8422 34.8779C12.1002 35.0451 11.3243 34.9733 10.6256 34.6729C9.4654 34.161 8.36003 33.533 7.32645 32.7985C6.76139 32.4096 6.32221 31.8645 6.06275 31.2299C5.80328 30.5953 5.73482 29.8988 5.86574 29.2259C6.08288 28.2503 5.99498 27.2316 5.6139 26.3075C5.32366 25.6489 4.88134 25.0685 4.32319 24.6136C3.76504 24.1588 3.10695 23.8426 2.40285 23.6909C1.42065 23.4771 0.57696 22.1562 0.0858589 20.8857C0.0327705 20.7188 0.0151234 20.5428 0.0340467 20.3687C0.05297 20.1947 0.108047 20.0265 0.195755 19.875C0.283462 19.7234 0.401869 19.5918 0.543401 19.4886C0.684934 19.3854 0.846475 19.3128 1.01769 19.2755C1.31584 19.2325 1.61954 19.2977 1.87368 19.4593C2.12782 19.6208 2.31557 19.868 2.40285 20.1561C2.54137 20.6844 2.74284 21.1876 2.94432 21.2379C3.86103 21.4386 4.72884 21.8188 5.49758 22.3565C6.26633 22.8942 6.92078 23.5788 7.4231 24.3707C7.92542 25.1626 8.26566 26.0461 8.42414 26.9702C8.58262 27.8942 8.55621 28.8405 8.34643 29.7543C8.30987 29.9523 8.33212 30.1567 8.41044 30.3422C8.48875 30.5277 8.61971 30.6863 8.78717 30.7984C9.67525 31.4285 10.6244 31.968 11.6204 32.4086C11.8323 32.5034 12.0691 32.5276 12.2958 32.4778C12.5225 32.428 12.7272 32.3067 12.8797 32.1318C13.5463 31.3685 14.3688 30.7566 15.292 30.3373C16.2151 29.918 17.2174 29.7011 18.2314 29.7011C19.2455 29.7011 20.2478 29.918 21.1709 30.3373C22.094 30.7566 22.9165 31.3685 23.5832 32.1318C23.7316 32.3123 23.9356 32.4386 24.1634 32.4909C24.3912 32.5432 24.63 32.5187 24.8424 32.4212C25.9821 31.9234 27.0598 31.2943 28.0534 30.5468C28.2153 30.431 28.3396 30.2705 28.4112 30.085C28.4828 29.8994 28.4985 29.697 28.4564 29.5027C28.0121 27.76 28.2556 25.9134 29.1364 24.3451C29.6125 23.4936 30.2581 22.7485 31.0334 22.1557C31.8087 21.5629 32.6973 21.135 33.6444 20.8983C33.8365 20.8445 34.0089 20.7363 34.1408 20.5867C34.2726 20.4371 34.3583 20.2526 34.3874 20.0554C34.6852 18.2731 34.6852 16.4537 34.3874 14.6714C34.3577 14.4616 34.2683 14.2647 34.1299 14.1042C33.9915 13.9436 33.8099 13.8261 33.6067 13.7656C32.69 13.565 31.8222 13.1848 31.0534 12.647C30.2847 12.1093 29.6302 11.4247 29.1279 10.6328C28.6256 9.8409 28.2853 8.9574 28.1268 8.03335C27.9684 7.1093 27.9948 6.16304 28.2046 5.24925C28.2411 5.05124 28.2189 4.84686 28.1406 4.66133C28.0622 4.4758 27.9313 4.31722 27.7638 4.20515C26.9044 3.60009 25.9894 3.0778 25.0313 2.64528C24.8194 2.55049 24.5827 2.52621 24.3559 2.57604C24.1292 2.62587 23.9245 2.74716 23.772 2.92203C23.1066 3.71521 22.2753 4.35307 21.3365 4.79072C20.3978 5.22837 19.3744 5.45517 18.3385 5.45517C17.3025 5.45517 16.2791 5.22837 15.3404 4.79072C14.4016 4.35307 13.5703 3.71521 12.9049 2.92203C12.7595 2.73763 12.5562 2.60755 12.3277 2.55278C12.0992 2.498 11.8589 2.52172 11.6456 2.62012C10.5305 3.11729 9.47458 3.73755 8.49754 4.46932C8.33799 4.58667 8.21611 4.74791 8.14679 4.93333C8.07747 5.11875 8.0637 5.32032 8.10718 5.51342C8.5884 7.28824 8.35328 9.18082 7.45238 10.7843C6.97657 11.6421 6.32819 12.3924 5.54802 12.9877C4.76785 13.5831 3.87279 14.0107 2.91914 14.2437C2.70507 14.2437 2.51618 14.7846 2.39026 15.2878C2.30602 15.5733 2.12313 15.8198 1.87412 15.9833C1.62511 16.1469 1.32611 16.2169 1.03028 16.1809C0.854239 16.1484 0.687159 16.0788 0.540187 15.9766C0.393216 15.8745 0.269732 15.7422 0.177974 15.5887C0.0862147 15.4351 0.0282898 15.2638 0.00806286 15.086C-0.0121641 14.9083 0.00577188 14.7284 0.0606743 14.5581C0.526591 13.3002 1.31991 12.0422 2.28952 11.8158C3.1898 11.5632 3.99567 11.0513 4.60651 10.344C5.10342 9.78573 5.45523 9.11392 5.63091 8.38779C5.80659 7.66165 5.80074 6.90349 5.6139 6.18014C5.42045 5.49751 5.4371 4.77251 5.66168 4.09946C5.88626 3.4264 6.30837 2.83643 6.87313 2.40627C8.00814 1.57212 9.23302 0.867477 10.5249 0.305477C11.2313 -0.00361337 12.0188 -0.0762983 12.77 0.0982622C13.5211 0.272823 14.1957 0.685276 14.693 1.2741C15.122 1.78677 15.6584 2.19912 16.2644 2.48207C16.8703 2.76502 17.5311 2.91167 18.1999 2.91167C18.8688 2.91167 19.5296 2.76502 20.1355 2.48207C20.7415 2.19912 21.2779 1.78677 21.7069 1.2741C22.2071 0.681498 22.8861 0.2668 23.6421 0.0921684C24.398 -0.0824632 25.1903 -0.0076213 25.9002 0.305477C27.0181 0.810294 28.0849 1.42111 29.086 2.12952C29.6556 2.52026 30.0977 3.06957 30.3574 3.7092C30.6171 4.34882 30.6829 5.05058 30.5467 5.72728C30.3155 6.71866 30.4036 7.7577 30.7986 8.69606C31.0909 9.35552 31.5354 9.93644 32.0957 10.3912C32.656 10.846 33.3162 11.1618 34.0222 11.3126C34.7109 11.4814 35.3352 11.8476 35.8185 12.3661C36.3017 12.8846 36.6227 13.5328 36.7422 14.2311C37.0859 16.2883 37.0859 18.3882 36.7422 20.4454C36.6379 21.1312 36.334 21.7712 35.8682 22.2857C35.4025 22.8001 34.7955 23.1664 34.123 23.3387C33.4177 23.5119 32.7636 23.8496 32.2142 24.3241C31.6648 24.7986 31.2358 25.3964 30.9623 26.0685C30.6116 26.9801 30.5543 27.9784 30.7986 28.924C30.9605 29.583 30.9277 30.2748 30.7042 30.9155C30.4808 31.5563 30.0761 32.1186 29.5393 32.5344C28.3704 33.4061 27.1024 34.1366 25.7616 34.7106C25.3166 34.9033 24.8364 35.0018 24.3513 35Z" fill="#F9F9F9"/>
<path d="M18.2063 23.7916C16.9611 23.7916 15.7438 23.4227 14.7084 22.7315C13.673 22.0404 12.866 21.0581 12.3894 19.9088C11.9129 18.7595 11.7882 17.4948 12.0311 16.2747C12.2741 15.0546 12.8737 13.9339 13.7543 13.0542C14.6348 12.1746 15.7567 11.5755 16.978 11.3328C18.1993 11.0901 19.4653 11.2147 20.6158 11.6908C21.7662 12.1668 22.7496 12.973 23.4414 14.0073C24.1332 15.0417 24.5025 16.2578 24.5025 17.5018C24.5025 19.1699 23.8392 20.7698 22.6584 21.9493C21.4776 23.1289 19.8762 23.7916 18.2063 23.7916ZM18.2063 13.7279C17.4592 13.7279 16.7288 13.9492 16.1076 14.3639C15.4863 14.7786 15.0021 15.368 14.7162 16.0576C14.4303 16.7472 14.3555 17.506 14.5012 18.238C14.647 18.9701 15.0068 19.6425 15.5351 20.1703C16.0634 20.6981 16.7365 21.0575 17.4693 21.2031C18.2021 21.3487 18.9617 21.274 19.652 20.9884C20.3423 20.7027 20.9323 20.219 21.3474 19.5984C21.7625 18.9778 21.984 18.2482 21.984 17.5018C21.984 16.5009 21.586 15.541 20.8776 14.8332C20.1691 14.1255 19.2082 13.7279 18.2063 13.7279Z" fill="#F9F9F9"/>
</svg>