<svg xmlns="http://www.w3.org/2000/svg" width="31" height="35" viewBox="0 0 31 35" fill="none">
  <path d="M28.1981 20.9876C27.8174 20.3886 27.6157 19.7027 27.6157 19.0027V13.9643C27.6157 13.3806 27.1377 12.9073 26.5481 12.9073C25.9586 12.9073 25.4806 13.3806 25.4806 13.9643V19.0027C25.4806 20.1032 25.7973 21.179 26.3975 22.1244L27.4271 23.7053C27.6881 24.1081 27.7023 24.6002 27.4698 25.0218C27.2361 25.4446 26.8067 25.6971 26.3216 25.6971H3.4519C2.96794 25.6971 2.53735 25.4446 2.30367 25.0218C2.07118 24.6002 2.0866 24.1093 2.34519 23.71L3.3831 22.1151C3.97857 21.179 4.29528 20.102 4.29528 19.0027V12.6019C4.29528 6.8189 9.04715 2.11403 14.8879 2.11403C15.9709 2.11403 17.0254 2.2714 18.0195 2.58146C18.5829 2.75645 19.1807 2.44875 19.3587 1.89088C19.5354 1.33418 19.2246 0.741083 18.6612 0.564914C17.4572 0.190262 16.188 0 14.8867 0C7.86808 0 2.15896 5.65267 2.15896 12.6019V19.0027C2.15896 19.7027 1.95731 20.3898 1.58247 20.9793L0.548115 22.5672C-0.138687 23.6301 -0.182576 24.9279 0.430683 26.0366C1.04513 27.1476 2.17438 27.8112 3.45072 27.8112H26.3204C27.5967 27.8112 28.726 27.1488 29.3404 26.0377C29.9549 24.9279 29.911 23.6313 29.223 22.5637L28.1981 20.9876Z" fill="#F9F9F9"/>
  <path d="M20.7099 29.9416C20.1951 29.6585 19.545 29.8394 19.2568 30.3503C18.3766 31.9147 16.7017 32.8859 14.8869 32.8859C13.072 32.8859 11.3983 31.9147 10.517 30.3515C10.2287 29.8418 9.57749 29.6585 9.06387 29.9428C8.54907 30.227 8.36402 30.8706 8.65108 31.3803C9.90725 33.6129 12.2962 35 14.8857 35C17.4739 35 19.8617 33.6129 21.1203 31.3803C21.4085 30.8694 21.2235 30.2258 20.7099 29.9416Z" fill="#F9F9F9"/>
  <path d="M25.131 11.0375C27.9269 11.0375 30.202 8.7861 30.202 6.01673C30.202 3.24735 27.9269 0.995911 25.131 0.995911C22.3352 0.995911 20.0601 3.24735 20.0601 6.01673C20.0601 8.7861 22.3352 11.0375 25.131 11.0375ZM25.131 3.10994C26.749 3.10994 28.0668 4.41359 28.0668 6.01673C28.0668 7.61986 26.7502 8.92351 25.131 8.92351C23.5119 8.92351 22.1952 7.61986 22.1952 6.01673C22.1952 4.41359 23.513 3.10994 25.131 3.10994Z" fill="#3CEBFF"/>
</svg>