<svg xmlns="http://www.w3.org/2000/svg" width="31" height="35" viewBox="0 0 31 35" fill="none">
  <path fill-rule="evenodd" clip-rule="evenodd" d="M9.84296 7.04895C9.84281 6.06037 10.1682 5.09396 10.7781 4.2719C11.388 3.44984 12.2549 2.80906 13.2693 2.43058C14.2836 2.05211 15.3998 1.95293 16.4768 2.14559C17.5537 2.33826 18.543 2.81411 19.3196 3.51298C20.0962 4.21185 20.6252 5.10236 20.8397 6.07189C21.0541 7.04142 20.9445 8.04644 20.5246 8.95987C20.1047 9.8733 19.3933 10.6541 18.4806 11.2036C17.5678 11.753 16.4945 12.0465 15.3965 12.0468C13.9245 12.0454 12.5132 11.5185 11.4722 10.5816C10.4311 9.64465 9.84517 8.37424 9.84296 7.04895Z" fill="#3CEBFF"/>
  <path fill-rule="evenodd" clip-rule="evenodd" d="M15.3957 2.18765C16.4634 2.18813 17.507 2.47362 18.3945 3.00805C19.282 3.54248 19.9736 4.30185 20.3819 5.19013C20.7901 6.07841 20.8966 7.05573 20.688 7.99852C20.4793 8.94131 19.9649 9.80723 19.2097 10.4868C18.4545 11.1664 17.4924 11.6291 16.4452 11.8164C15.3979 12.0038 14.3125 11.9074 13.3261 11.5393C12.3397 11.1713 11.4967 10.5482 10.9036 9.74887C10.3105 8.94951 9.99391 8.00976 9.99396 7.04844C9.99545 5.75924 10.5651 4.52327 11.5779 3.61191C12.5907 2.70055 13.9638 2.1883 15.3957 2.18765ZM15.3957 14.0972C16.944 14.0969 18.4574 13.6832 19.7446 12.9086C21.0319 12.1339 22.035 11.033 22.6273 9.74499C23.2196 8.45701 23.3745 7.03983 23.0722 5.67264C22.77 4.30545 22.0243 3.04965 20.9293 2.06402C19.8344 1.0784 18.4395 0.407221 16.9209 0.135351C15.4023 -0.136519 13.8283 0.00313089 12.3979 0.536642C10.9674 1.07015 9.74483 1.97357 8.88465 3.13265C8.02447 4.29173 7.56533 5.65443 7.5653 7.04844C7.56723 8.91757 8.39288 10.7096 9.86098 12.0312C11.3291 13.3527 13.3196 14.0958 15.3957 14.0972ZM2.42866 23.9804C2.4303 22.2333 3.20179 20.5581 4.57378 19.3225C5.94578 18.0869 7.8062 17.3919 9.74674 17.39H21.0409C22.9818 17.3918 24.8426 18.0867 26.2151 19.3222C27.5877 20.5577 28.3599 22.233 28.3624 23.9804V32.0257C28.3615 32.2346 28.2687 32.4348 28.1042 32.5822C27.9398 32.7297 27.7171 32.8125 27.485 32.8125H23.7955V25.2933C23.7968 25.149 23.7663 25.0059 23.7059 24.8723C23.6454 24.7386 23.5562 24.6171 23.4433 24.5146C23.3304 24.4122 23.1961 24.3309 23.0482 24.2754C22.9002 24.2199 22.7415 24.1913 22.5812 24.1913C22.4209 24.1913 22.2622 24.2199 22.1143 24.2754C21.9663 24.3309 21.832 24.4122 21.7191 24.5146C21.6063 24.6171 21.517 24.7386 21.4566 24.8723C21.3961 25.0059 21.3656 25.149 21.3669 25.2933V32.8125H9.42079V25.2933C9.42079 25.0034 9.29286 24.7253 9.06513 24.5203C8.83741 24.3152 8.52855 24.2 8.2065 24.2C7.88445 24.2 7.57559 24.3152 7.34787 24.5203C7.12014 24.7253 6.99221 25.0034 6.99221 25.2933V32.8125H3.30264C3.18784 32.8125 3.07417 32.7921 2.96812 32.7525C2.86207 32.7129 2.76571 32.655 2.68455 32.5819C2.60339 32.5088 2.53902 32.422 2.49512 32.3265C2.45121 32.231 2.42863 32.1286 2.42866 32.0253V23.9804ZM3.30264 35H27.4852C28.3615 34.9994 29.2017 34.6859 29.8216 34.1282C30.4414 33.5705 30.7902 32.8142 30.7915 32.0252V23.9804C30.7886 21.653 29.7603 19.4216 27.9324 17.7759C26.1044 16.1302 23.626 15.2046 21.0409 15.2021H9.74674C4.37009 15.2021 0 19.1396 0 23.9801V32.0253C0.000482427 32.8139 0.348552 33.5701 0.967776 34.1278C1.587 34.6856 2.42676 34.9993 3.30264 35Z" fill="#F9F9F9"/>
</svg>