<svg xmlns="http://www.w3.org/2000/svg" width="25" height="25" viewBox="0 0 25 25" fill="none">
  <mask id="path-1-inside-1_141_1287" fill="white">
    <path d="M9.55915 17.3506C8.09904 17.3506 6.69874 16.7717 5.66628 15.7413C4.63383 14.7109 4.0538 13.3134 4.0538 11.8562C4.0538 11.6262 4.14539 11.4055 4.3084 11.2428C4.47142 11.0801 4.69252 10.9887 4.92307 10.9887C5.15361 10.9887 5.37471 11.0801 5.53773 11.2428C5.70075 11.4055 5.79233 11.6262 5.79233 11.8562C5.79539 12.8523 6.19323 13.8067 6.89899 14.5111C7.60474 15.2154 8.56107 15.6125 9.55915 15.6155C9.7897 15.6155 10.0108 15.7069 10.1738 15.8696C10.3368 16.0323 10.4284 16.253 10.4284 16.4831C10.4284 16.7131 10.3368 16.9338 10.1738 17.0965C10.0108 17.2592 9.7897 17.3506 9.55915 17.3506Z"/>
  </mask>
  <path d="M9.55915 17.3506C8.09904 17.3506 6.69874 16.7717 5.66628 15.7413C4.63383 14.7109 4.0538 13.3134 4.0538 11.8562C4.0538 11.6262 4.14539 11.4055 4.3084 11.2428C4.47142 11.0801 4.69252 10.9887 4.92307 10.9887C5.15361 10.9887 5.37471 11.0801 5.53773 11.2428C5.70075 11.4055 5.79233 11.6262 5.79233 11.8562C5.79539 12.8523 6.19323 13.8067 6.89899 14.5111C7.60474 15.2154 8.56107 15.6125 9.55915 15.6155C9.7897 15.6155 10.0108 15.7069 10.1738 15.8696C10.3368 16.0323 10.4284 16.253 10.4284 16.4831C10.4284 16.7131 10.3368 16.9338 10.1738 17.0965C10.0108 17.2592 9.7897 17.3506 9.55915 17.3506Z" fill="#F9F9F9"/>
  <path d="M4.0538 11.8562L-17.2795 11.8562V11.8562H4.0538ZM5.79233 11.8562L-15.541 11.8562V11.889L-15.5409 11.9217L5.79233 11.8562ZM9.55915 15.6155L9.49395 36.9488L9.52655 36.9489H9.55915V15.6155ZM9.55915 -3.98275C13.7432 -3.98275 17.7645 -2.32436 20.7361 0.641289L-9.40356 30.8414C-4.36706 35.8678 2.45485 38.6839 9.55915 38.6839V-3.98275ZM20.7361 0.641289C23.7092 3.60837 25.3871 7.64168 25.3871 11.8562H-17.2795C-17.2795 18.9852 -14.4415 25.8135 -9.40356 30.8414L20.7361 0.641289ZM25.3871 11.8562C25.3871 17.2979 23.2207 22.5081 19.3782 26.3428L-10.7614 -3.85723C-14.9299 0.302934 -17.2795 5.9544 -17.2795 11.8562L25.3871 11.8562ZM19.3782 26.3428C15.5372 30.1762 10.3367 32.322 4.92307 32.322V-10.3446C-0.951688 -10.3446 -6.59439 -8.01595 -10.7614 -3.85723L19.3782 26.3428ZM4.92307 32.322C-0.490601 32.322 -5.6911 30.1762 -9.53211 26.3428L20.6076 -3.85723C16.4405 -8.01595 10.7978 -10.3446 4.92307 -10.3446V32.322ZM-9.53211 26.3428C-13.3746 22.5081 -15.541 17.2979 -15.541 11.8562L27.1257 11.8562C27.1257 5.9544 24.7761 0.302934 20.6076 -3.85723L-9.53211 26.3428ZM-15.5409 11.9217C-15.5205 18.5668 -12.8661 24.9253 -8.17085 29.6111L21.9688 -0.588951C25.2525 2.68818 27.1113 7.13784 27.1256 11.7908L-15.5409 11.9217ZM-8.17085 29.6111C-3.47707 34.2955 2.87426 36.9285 9.49395 36.9488L9.62436 -5.71771C14.2479 -5.70358 18.6866 -3.86466 21.9688 -0.588951L-8.17085 29.6111ZM9.55915 36.9489C4.14547 36.9489 -1.05502 34.803 -4.89602 30.9697L25.2437 0.769583C21.0766 -3.38912 15.4339 -5.71781 9.55915 -5.71781V36.9489ZM-4.89602 30.9697C-8.73846 27.1349 -10.9049 21.9248 -10.9049 16.4831H31.7618C31.7618 10.5812 29.4121 4.92972 25.2437 0.769583L-4.89602 30.9697ZM-10.9049 16.4831C-10.9049 11.0414 -8.73848 5.83123 -4.89602 1.99645L25.2437 32.1965C29.4122 28.0364 31.7618 22.3849 31.7618 16.4831H-10.9049ZM-4.89602 1.99645C-1.05498 -1.83692 4.14554 -3.98275 9.55915 -3.98275V38.6839C15.4339 38.6839 21.0766 36.3553 25.2437 32.1965L-4.89602 1.99645Z" fill="#F9F9F9" mask="url(#path-1-inside-1_141_1287)"/>
  <mask id="path-3-inside-2_141_1287" fill="white">
    <path d="M24.047 24.8691C23.9328 24.8697 23.8196 24.8474 23.7141 24.8037C23.6087 24.76 23.513 24.6958 23.4327 24.6147L17.0929 18.2181C16.9674 18.1583 16.8581 18.0693 16.7742 17.9586C16.6903 17.8479 16.6343 17.7187 16.6108 17.5819C16.5872 17.4452 16.5969 17.3047 16.6391 17.1725C16.6812 17.0402 16.7545 16.92 16.8528 16.8218C16.9512 16.7237 17.0717 16.6505 17.2042 16.6085C17.3367 16.5664 17.4774 16.5567 17.6145 16.5802C17.7516 16.6037 17.881 16.6596 17.9919 16.7434C18.1028 16.8271 18.192 16.9361 18.2519 17.0614L24.6149 23.4117C24.7777 23.5743 24.8691 23.7948 24.8691 24.0247C24.8691 24.2546 24.7777 24.4751 24.6149 24.6378C24.4607 24.7821 24.2584 24.8645 24.047 24.8691Z"/>
  </mask>
  <path d="M24.047 24.8691C23.9328 24.8697 23.8196 24.8474 23.7141 24.8037C23.6087 24.76 23.513 24.6958 23.4327 24.6147L17.0929 18.2181C16.9674 18.1583 16.8581 18.0693 16.7742 17.9586C16.6903 17.8479 16.6343 17.7187 16.6108 17.5819C16.5872 17.4452 16.5969 17.3047 16.6391 17.1725C16.6812 17.0402 16.7545 16.92 16.8528 16.8218C16.9512 16.7237 17.0717 16.6505 17.2042 16.6085C17.3367 16.5664 17.4774 16.5567 17.6145 16.5802C17.7516 16.6037 17.881 16.6596 17.9919 16.7434C18.1028 16.8271 18.192 16.9361 18.2519 17.0614L24.6149 23.4117C24.7777 23.5743 24.8691 23.7948 24.8691 24.0247C24.8691 24.2546 24.7777 24.4751 24.6149 24.6378C24.4607 24.7821 24.2584 24.8645 24.047 24.8691Z" fill="#F9F9F9"/>
  <path d="M24.047 24.8691L24.1475 46.2022L24.3297 46.2014L24.5117 46.1974L24.047 24.8691ZM23.4327 24.6147L38.5963 9.60874L38.5905 9.6029L38.5847 9.59706L23.4327 24.6147ZM17.0929 18.2181L32.2449 3.20048L29.6278 0.559988L26.2718 -1.0396L17.0929 18.2181ZM18.2519 17.0614L-0.991476 26.2703L0.589571 29.5741L3.18205 32.1614L18.2519 17.0614ZM24.6149 23.4117L39.6942 8.32104L39.6848 8.31166L24.6149 23.4117ZM24.6149 24.6378L39.1912 40.2148L39.4467 39.9758L39.6942 39.7284L24.6149 24.6378ZM23.9465 3.53604C26.6671 3.52322 29.3638 4.05275 31.8789 5.09467L15.5494 44.5128C18.2754 45.6421 21.1985 46.2161 24.1475 46.2022L23.9465 3.53604ZM31.8789 5.09467C34.394 6.13657 36.6782 7.67049 38.5963 9.60874L8.26917 39.6206C10.3478 41.721 12.8234 43.3835 15.5494 44.5128L31.8789 5.09467ZM38.5847 9.59706L32.2449 3.20048L1.94089 33.2357L8.28073 39.6323L38.5847 9.59706ZM26.2718 -1.0396C29.2231 0.367073 31.7974 2.46196 33.7762 5.07277L-0.227741 30.8444C1.91878 33.6766 4.71172 35.9495 7.91394 37.4758L26.2718 -1.0396ZM33.7762 5.07277C35.7551 7.68375 37.0797 10.7338 37.6357 13.9674L-4.41414 21.1965C-3.8112 24.7037 -2.3744 28.012 -0.227741 30.8444L33.7762 5.07277ZM37.6357 13.9674C38.1916 17.2011 37.9619 20.5206 36.9664 23.6462L-3.6883 10.6987C-4.76796 14.0889 -5.0171 17.6892 -4.41414 21.1965L37.6357 13.9674ZM36.9664 23.6462C35.9711 26.7716 34.2401 29.609 31.9227 31.9218L1.78299 1.72179C-0.731121 4.23087 -2.60868 7.30877 -3.6883 10.6987L36.9664 23.6462ZM31.9227 31.9218C29.6054 34.2344 26.7695 35.9552 23.6544 36.9433L10.7539 -3.72636C7.37387 -2.65419 4.2969 -0.7871 1.78299 1.72179L31.9227 31.9218ZM23.6544 36.9433C20.5396 37.9313 17.2339 38.1589 14.014 37.6075L21.215 -4.44709C17.7209 -5.04538 14.1339 -4.79848 10.7539 -3.72636L23.6544 36.9433ZM14.014 37.6075C10.7939 37.0561 7.75012 35.7413 5.13881 33.7701L30.845 -0.283379C28.0118 -2.42204 24.7092 -3.84878 21.215 -4.44709L14.014 37.6075ZM5.13881 33.7701C2.52726 31.7987 0.423782 29.2277 -0.991476 26.2703L37.4953 7.85249C35.9602 4.64461 33.6783 1.85547 30.845 -0.283379L5.13881 33.7701ZM3.18205 32.1614L9.54508 38.5117L39.6848 8.31166L33.3218 1.96135L3.18205 32.1614ZM9.53568 38.5023C5.69867 34.6682 3.53581 29.4619 3.53581 24.0247H46.2025C46.2025 18.1278 43.8568 12.4805 39.6942 8.32104L9.53568 38.5023ZM3.53581 24.0247C3.53581 18.5875 5.69871 13.3812 9.53568 9.54715L39.6942 39.7284C43.8567 35.569 46.2025 29.9217 46.2025 24.0247H3.53581ZM10.0387 9.06076C13.7237 5.61246 18.5476 3.65057 23.5823 3.54086L24.5117 46.1974C29.9692 46.0785 35.1976 43.9518 39.1912 40.2148L10.0387 9.06076Z" fill="#F9F9F9" mask="url(#path-3-inside-2_141_1287)"/>
  <mask id="path-5-inside-3_141_1287" fill="white">
    <path d="M9.55915 17.3506C8.09904 17.3506 6.69874 16.7717 5.66628 15.7413C4.63383 14.7109 4.0538 13.3134 4.0538 11.8562C4.0538 11.6262 4.14539 11.4055 4.3084 11.2428C4.47142 11.0801 4.69252 10.9887 4.92307 10.9887C5.15361 10.9887 5.37471 11.0801 5.53773 11.2428C5.70075 11.4055 5.79233 11.6262 5.79233 11.8562C5.79539 12.8523 6.19323 13.8067 6.89899 14.5111C7.60474 15.2154 8.56107 15.6125 9.55915 15.6155C9.7897 15.6155 10.0108 15.7069 10.1738 15.8696C10.3368 16.0323 10.4284 16.253 10.4284 16.4831C10.4284 16.7131 10.3368 16.9338 10.1738 17.0965C10.0108 17.2592 9.7897 17.3506 9.55915 17.3506Z"/>
  </mask>
  <path d="M9.55915 17.3506C8.09904 17.3506 6.69874 16.7717 5.66628 15.7413C4.63383 14.7109 4.0538 13.3134 4.0538 11.8562C4.0538 11.6262 4.14539 11.4055 4.3084 11.2428C4.47142 11.0801 4.69252 10.9887 4.92307 10.9887C5.15361 10.9887 5.37471 11.0801 5.53773 11.2428C5.70075 11.4055 5.79233 11.6262 5.79233 11.8562C5.79539 12.8523 6.19323 13.8067 6.89899 14.5111C7.60474 15.2154 8.56107 15.6125 9.55915 15.6155C9.7897 15.6155 10.0108 15.7069 10.1738 15.8696C10.3368 16.0323 10.4284 16.253 10.4284 16.4831C10.4284 16.7131 10.3368 16.9338 10.1738 17.0965C10.0108 17.2592 9.7897 17.3506 9.55915 17.3506Z" fill="#3CEBFF"/>
  <path d="M4.0538 11.8562L-17.2795 11.8562V11.8562H4.0538ZM5.79233 11.8562L-15.541 11.8562V11.889L-15.5409 11.9217L5.79233 11.8562ZM9.55915 15.6155L9.49395 36.9488L9.52655 36.9489H9.55915V15.6155ZM9.55915 -3.98275C13.7432 -3.98275 17.7645 -2.32436 20.7361 0.641289L-9.40356 30.8414C-4.36706 35.8678 2.45485 38.6839 9.55915 38.6839V-3.98275ZM20.7361 0.641289C23.7092 3.60837 25.3871 7.64168 25.3871 11.8562H-17.2795C-17.2795 18.9852 -14.4415 25.8135 -9.40356 30.8414L20.7361 0.641289ZM25.3871 11.8562C25.3871 17.2979 23.2207 22.5081 19.3782 26.3428L-10.7614 -3.85723C-14.9299 0.302934 -17.2795 5.9544 -17.2795 11.8562L25.3871 11.8562ZM19.3782 26.3428C15.5372 30.1762 10.3367 32.322 4.92307 32.322V-10.3446C-0.951688 -10.3446 -6.59439 -8.01595 -10.7614 -3.85723L19.3782 26.3428ZM4.92307 32.322C-0.490601 32.322 -5.6911 30.1762 -9.53211 26.3428L20.6076 -3.85723C16.4405 -8.01595 10.7978 -10.3446 4.92307 -10.3446V32.322ZM-9.53211 26.3428C-13.3746 22.5081 -15.541 17.2979 -15.541 11.8562L27.1257 11.8562C27.1257 5.9544 24.7761 0.302934 20.6076 -3.85723L-9.53211 26.3428ZM-15.5409 11.9217C-15.5205 18.5668 -12.8661 24.9253 -8.17085 29.6111L21.9688 -0.588951C25.2525 2.68818 27.1113 7.13784 27.1256 11.7908L-15.5409 11.9217ZM-8.17085 29.6111C-3.47707 34.2955 2.87426 36.9285 9.49395 36.9488L9.62436 -5.71771C14.2479 -5.70358 18.6866 -3.86466 21.9688 -0.588951L-8.17085 29.6111ZM9.55915 36.9489C4.14547 36.9489 -1.05502 34.803 -4.89602 30.9697L25.2437 0.769583C21.0766 -3.38912 15.4339 -5.71781 9.55915 -5.71781V36.9489ZM-4.89602 30.9697C-8.73846 27.1349 -10.9049 21.9248 -10.9049 16.4831H31.7618C31.7618 10.5812 29.4121 4.92972 25.2437 0.769583L-4.89602 30.9697ZM-10.9049 16.4831C-10.9049 11.0414 -8.73848 5.83123 -4.89602 1.99645L25.2437 32.1965C29.4122 28.0364 31.7618 22.3849 31.7618 16.4831H-10.9049ZM-4.89602 1.99645C-1.05498 -1.83692 4.14554 -3.98275 9.55915 -3.98275V38.6839C15.4339 38.6839 21.0766 36.3553 25.2437 32.1965L-4.89602 1.99645Z" fill="#F9F9F9" mask="url(#path-5-inside-3_141_1287)"/>
  <mask id="path-7-inside-4_141_1287" fill="white">
    <path d="M24.047 24.8691C23.9328 24.8697 23.8196 24.8474 23.7141 24.8037C23.6087 24.76 23.513 24.6958 23.4327 24.6147L17.0929 18.2181C16.9674 18.1583 16.8581 18.0693 16.7742 17.9586C16.6903 17.8479 16.6343 17.7187 16.6108 17.5819C16.5872 17.4452 16.5969 17.3047 16.6391 17.1725C16.6812 17.0402 16.7545 16.92 16.8528 16.8218C16.9512 16.7237 17.0717 16.6505 17.2042 16.6085C17.3367 16.5664 17.4774 16.5567 17.6145 16.5802C17.7516 16.6037 17.881 16.6596 17.9919 16.7434C18.1028 16.8271 18.192 16.9361 18.2519 17.0614L24.6149 23.4117C24.7777 23.5743 24.8691 23.7948 24.8691 24.0247C24.8691 24.2546 24.7777 24.4751 24.6149 24.6378C24.4607 24.7821 24.2584 24.8645 24.047 24.8691Z"/>
  </mask>
  <path d="M24.047 24.8691C23.9328 24.8697 23.8196 24.8474 23.7141 24.8037C23.6087 24.76 23.513 24.6958 23.4327 24.6147L17.0929 18.2181C16.9674 18.1583 16.8581 18.0693 16.7742 17.9586C16.6903 17.8479 16.6343 17.7187 16.6108 17.5819C16.5872 17.4452 16.5969 17.3047 16.6391 17.1725C16.6812 17.0402 16.7545 16.92 16.8528 16.8218C16.9512 16.7237 17.0717 16.6505 17.2042 16.6085C17.3367 16.5664 17.4774 16.5567 17.6145 16.5802C17.7516 16.6037 17.881 16.6596 17.9919 16.7434C18.1028 16.8271 18.192 16.9361 18.2519 17.0614L24.6149 23.4117C24.7777 23.5743 24.8691 23.7948 24.8691 24.0247C24.8691 24.2546 24.7777 24.4751 24.6149 24.6378C24.4607 24.7821 24.2584 24.8645 24.047 24.8691Z" fill="#F9F9F9"/>
  <path d="M24.047 24.8691L24.1475 46.2022L24.3297 46.2014L24.5117 46.1974L24.047 24.8691ZM23.4327 24.6147L38.5963 9.60874L38.5905 9.6029L38.5847 9.59706L23.4327 24.6147ZM17.0929 18.2181L32.2449 3.20048L29.6278 0.559988L26.2718 -1.0396L17.0929 18.2181ZM18.2519 17.0614L-0.991476 26.2703L0.589571 29.5741L3.18205 32.1614L18.2519 17.0614ZM24.6149 23.4117L39.6942 8.32104L39.6848 8.31166L24.6149 23.4117ZM24.6149 24.6378L39.1912 40.2148L39.4467 39.9758L39.6942 39.7284L24.6149 24.6378ZM23.9465 3.53604C26.6671 3.52322 29.3638 4.05275 31.8789 5.09467L15.5494 44.5128C18.2754 45.6421 21.1985 46.2161 24.1475 46.2022L23.9465 3.53604ZM31.8789 5.09467C34.394 6.13657 36.6782 7.67049 38.5963 9.60874L8.26917 39.6206C10.3478 41.721 12.8234 43.3835 15.5494 44.5128L31.8789 5.09467ZM38.5847 9.59706L32.2449 3.20048L1.94089 33.2357L8.28073 39.6323L38.5847 9.59706ZM26.2718 -1.0396C29.2231 0.367073 31.7974 2.46196 33.7762 5.07277L-0.227741 30.8444C1.91878 33.6766 4.71172 35.9495 7.91394 37.4758L26.2718 -1.0396ZM33.7762 5.07277C35.7551 7.68375 37.0797 10.7338 37.6357 13.9674L-4.41414 21.1965C-3.8112 24.7037 -2.3744 28.012 -0.227741 30.8444L33.7762 5.07277ZM37.6357 13.9674C38.1916 17.2011 37.9619 20.5206 36.9664 23.6462L-3.6883 10.6987C-4.76796 14.0889 -5.0171 17.6892 -4.41414 21.1965L37.6357 13.9674ZM36.9664 23.6462C35.9711 26.7716 34.2401 29.609 31.9227 31.9218L1.78299 1.72179C-0.731121 4.23087 -2.60868 7.30877 -3.6883 10.6987L36.9664 23.6462ZM31.9227 31.9218C29.6054 34.2344 26.7695 35.9552 23.6544 36.9433L10.7539 -3.72636C7.37387 -2.65419 4.2969 -0.7871 1.78299 1.72179L31.9227 31.9218ZM23.6544 36.9433C20.5396 37.9313 17.2339 38.1589 14.014 37.6075L21.215 -4.44709C17.7209 -5.04538 14.1339 -4.79848 10.7539 -3.72636L23.6544 36.9433ZM14.014 37.6075C10.7939 37.0561 7.75012 35.7413 5.13881 33.7701L30.845 -0.283379C28.0118 -2.42204 24.7092 -3.84878 21.215 -4.44709L14.014 37.6075ZM5.13881 33.7701C2.52726 31.7987 0.423782 29.2277 -0.991476 26.2703L37.4953 7.85249C35.9602 4.64461 33.6783 1.85547 30.845 -0.283379L5.13881 33.7701ZM3.18205 32.1614L9.54508 38.5117L39.6848 8.31166L33.3218 1.96135L3.18205 32.1614ZM9.53568 38.5023C5.69867 34.6682 3.53581 29.4619 3.53581 24.0247H46.2025C46.2025 18.1278 43.8568 12.4805 39.6942 8.32104L9.53568 38.5023ZM3.53581 24.0247C3.53581 18.5875 5.69871 13.3812 9.53568 9.54715L39.6942 39.7284C43.8567 35.569 46.2025 29.9217 46.2025 24.0247H3.53581ZM10.0387 9.06076C13.7237 5.61246 18.5476 3.65057 23.5823 3.54086L24.5117 46.1974C29.9692 46.0785 35.1976 43.9518 39.1912 40.2148L10.0387 9.06076Z" fill="#F9F9F9" mask="url(#path-7-inside-4_141_1287)"/>
  <mask id="path-9-inside-5_141_1287" fill="white">
    <path d="M10.7066 21.399C8.38773 21.3959 6.13234 20.6426 4.27878 19.2519C2.42521 17.8613 1.07341 15.9084 0.426127 13.6861C-0.221151 11.4638 -0.129004 9.09198 0.688746 6.92639C1.5065 4.7608 3.00576 2.91819 4.96165 1.67497C6.91754 0.431743 9.22461 -0.145076 11.5368 0.031034C13.849 0.207144 16.0416 1.12669 17.7858 2.65174C19.53 4.17678 20.7317 6.22511 21.2107 8.48947C21.6897 10.7538 21.4201 13.1121 20.4424 15.2107C20.3939 15.3141 20.3254 15.407 20.2408 15.4839C20.1562 15.5609 20.0572 15.6204 19.9496 15.6591C19.8419 15.6978 19.7276 15.7149 19.6133 15.7094C19.499 15.7039 19.3868 15.6759 19.2834 15.6271C19.0762 15.5269 18.9165 15.3498 18.8385 15.1336C18.7605 14.9174 18.7704 14.6793 18.8661 14.4704C19.8147 12.4397 19.9701 10.1289 19.302 7.98998C18.6339 5.85103 17.1903 4.0377 15.2536 2.90462C13.3169 1.77154 11.0264 1.4002 8.82986 1.86321C6.63337 2.32623 4.68892 3.5903 3.37677 5.40823C2.06462 7.22615 1.47915 9.46719 1.73484 11.6931C1.99054 13.919 3.06901 15.9696 4.75935 17.444C6.4497 18.9184 8.63034 19.7105 10.8748 19.6654C13.1194 19.6203 15.2663 18.7413 16.8958 17.2002C17.0622 17.0398 17.2845 16.9501 17.5159 16.9501C17.7472 16.9501 17.9696 17.0398 18.136 17.2002C18.2987 17.3628 18.3902 17.5833 18.3902 17.8132C18.3902 18.0431 18.2987 18.2636 18.136 18.4263C16.2814 20.1927 13.8572 21.2424 11.2977 21.3875L10.7066 21.399Z"/>
  </mask>
  <path d="M10.7066 21.399C8.38773 21.3959 6.13234 20.6426 4.27878 19.2519C2.42521 17.8613 1.07341 15.9084 0.426127 13.6861C-0.221151 11.4638 -0.129004 9.09198 0.688746 6.92639C1.5065 4.7608 3.00576 2.91819 4.96165 1.67497C6.91754 0.431743 9.22461 -0.145076 11.5368 0.031034C13.849 0.207144 16.0416 1.12669 17.7858 2.65174C19.53 4.17678 20.7317 6.22511 21.2107 8.48947C21.6897 10.7538 21.4201 13.1121 20.4424 15.2107C20.3939 15.3141 20.3254 15.407 20.2408 15.4839C20.1562 15.5609 20.0572 15.6204 19.9496 15.6591C19.8419 15.6978 19.7276 15.7149 19.6133 15.7094C19.499 15.7039 19.3868 15.6759 19.2834 15.6271C19.0762 15.5269 18.9165 15.3498 18.8385 15.1336C18.7605 14.9174 18.7704 14.6793 18.8661 14.4704C19.8147 12.4397 19.9701 10.1289 19.302 7.98998C18.6339 5.85103 17.1903 4.0377 15.2536 2.90462C13.3169 1.77154 11.0264 1.4002 8.82986 1.86321C6.63337 2.32623 4.68892 3.5903 3.37677 5.40823C2.06462 7.22615 1.47915 9.46719 1.73484 11.6931C1.99054 13.919 3.06901 15.9696 4.75935 17.444C6.4497 18.9184 8.63034 19.7105 10.8748 19.6654C13.1194 19.6203 15.2663 18.7413 16.8958 17.2002C17.0622 17.0398 17.2845 16.9501 17.5159 16.9501C17.7472 16.9501 17.9696 17.0398 18.136 17.2002C18.2987 17.3628 18.3902 17.5833 18.3902 17.8132C18.3902 18.0431 18.2987 18.2636 18.136 18.4263C16.2814 20.1927 13.8572 21.2424 11.2977 21.3875L10.7066 21.399Z" fill="#F9F9F9"/>
  <path d="M10.7066 21.399L10.6782 42.7323L10.9011 42.7326L11.124 42.7283L10.7066 21.399ZM20.4424 15.2107L39.7568 24.2697L39.7684 24.2449L39.78 24.22L20.4424 15.2107ZM19.2834 15.6271L10.0014 34.8353L10.0881 34.8772L10.1752 34.9183L19.2834 15.6271ZM18.8661 14.4704L-0.462554 5.44193L-0.49625 5.51407L-0.529407 5.58646L18.8661 14.4704ZM16.8958 17.2002L31.5544 32.6997L31.629 32.6292L31.703 32.5579L16.8958 17.2002ZM18.136 17.2002L33.2152 2.10953L33.0803 1.97479L32.9431 1.84248L18.136 17.2002ZM18.136 18.4263L32.8492 33.874L33.0344 33.6976L33.2152 33.5169L18.136 18.4263ZM11.2977 21.3875L11.7151 42.7167L12.1101 42.709L12.5045 42.6866L11.2977 21.3875ZM10.7351 0.0657058C13.0199 0.0687519 15.2468 0.810791 17.0815 2.1873L-8.52394 36.3166C-2.98208 40.4743 3.75556 42.7231 10.6782 42.7323L10.7351 0.0657058ZM17.0815 2.1873C18.9169 3.56434 20.2628 5.50398 20.9083 7.72029L-20.0561 19.6519C-18.116 26.3128 -14.0665 32.1583 -8.52394 36.3166L17.0815 2.1873ZM20.9083 7.72029C21.554 9.93708 21.4618 12.3037 20.6466 14.4627L-19.2691 -0.609904C-21.7198 5.88024 -21.9963 12.9905 -20.0561 19.6519L20.9083 7.72029ZM20.6466 14.4627C19.8316 16.6211 18.3405 18.4492 16.4056 19.6791L-6.4823 -16.3291C-12.329 -12.6128 -16.8186 -7.09948 -19.2691 -0.609904L20.6466 14.4627ZM16.4056 19.6791C14.4714 20.9085 12.1949 21.4763 9.9166 21.3028L13.157 -21.2407C6.25431 -21.7664 -0.636334 -20.045 -6.4823 -16.3291L16.4056 19.6791ZM9.9166 21.3028C7.63815 21.1292 5.47171 20.2228 3.74356 18.7118L31.828 -13.4084C26.6115 -17.9695 20.0598 -20.7149 13.157 -21.2407L9.9166 21.3028ZM3.74356 18.7118C2.01473 17.2002 0.817139 15.1638 0.339208 12.9045L42.0822 4.07449C40.6463 -2.71361 37.0453 -8.84665 31.828 -13.4084L3.74356 18.7118ZM0.339208 12.9045C-0.138802 10.6447 0.130789 8.29192 1.10483 6.20127L39.78 24.22C42.7094 17.9324 43.5182 10.863 42.0822 4.07449L0.339208 12.9045ZM1.12804 6.15161C2.27387 3.70864 3.8905 1.51837 5.8831 -0.294775L34.5985 31.2626C36.7602 29.2956 38.5139 26.9196 39.7568 24.2697L1.12804 6.15161ZM5.8831 -0.294775C7.87563 -2.10786 10.2049 -3.50826 12.7363 -4.41775L27.1628 35.736C29.9096 34.7491 32.4368 33.2297 34.5985 31.2626L5.8831 -0.294775ZM12.7363 -4.41775C15.2677 -5.32723 17.953 -5.72849 20.6384 -5.5993L18.5882 37.0181C21.5022 37.1583 24.416 36.7228 27.1628 35.736L12.7363 -4.41775ZM20.6384 -5.5993C23.3237 -5.47012 25.9584 -4.81297 28.3916 -3.66417L10.1752 34.9183C12.8153 36.1648 15.6742 36.8779 18.5882 37.0181L20.6384 -5.5993ZM28.5653 -3.58118C33.3719 -1.25851 37.0887 2.85657 38.9061 7.89478L-1.22917 22.3724C0.744191 27.843 4.78042 32.3124 10.0014 34.8353L28.5653 -3.58118ZM38.9061 7.89478C40.724 12.9342 40.492 18.485 38.2617 23.3543L-0.529407 5.58646C-2.95118 10.8737 -3.20298 16.9006 -1.22917 22.3724L38.9061 7.89478ZM38.1948 23.4988C41.3948 16.648 41.92 8.84871 39.6651 1.62966L-1.06116 14.3503C-1.97981 11.4092 -1.7655 8.23137 -0.462554 5.44193L38.1948 23.4988ZM39.6651 1.62966C37.4106 -5.58853 32.5428 -11.6965 26.0265 -15.5088L4.48074 21.3181C1.8379 19.7719 -0.142778 17.2906 -1.06116 14.3503L39.6651 1.62966ZM26.0265 -15.5088C19.5115 -19.3205 11.8115 -20.5675 4.42957 -19.0114L13.2302 22.7378C10.2413 23.3679 7.12239 22.8636 4.48074 21.3181L26.0265 -15.5088ZM4.42957 -19.0114C-2.95293 -17.4552 -9.49885 -13.2044 -13.9213 -7.07724L20.6749 17.8937C18.8767 20.385 16.2197 22.1076 13.2302 22.7378L4.42957 -19.0114ZM-13.9213 -7.07724C-18.3447 -0.948835 -20.3224 6.61277 -19.4591 14.1277L22.9288 9.25848C23.2807 12.3216 22.4739 15.4011 20.6749 17.8937L-13.9213 -7.07724ZM-19.4591 14.1277C-18.5959 21.6422 -14.9559 28.5559 -9.26368 33.5209L18.7824 1.36716C21.0939 3.38339 22.577 6.19572 22.9288 9.25848L-19.4591 14.1277ZM-9.26368 33.5209C-3.57264 38.4849 3.7614 41.146 11.3034 40.9945L10.4463 -1.66359C13.4993 -1.72493 16.472 -0.648041 18.7824 1.36716L-9.26368 33.5209ZM11.3034 40.9945C18.8454 40.8429 26.0671 37.8893 31.5544 32.6997L2.2372 1.70063C4.46545 -0.40673 7.39328 -1.60225 10.4463 -1.66359L11.3034 40.9945ZM31.703 32.5579C27.889 36.2351 22.8017 38.2834 17.5159 38.2834V-4.38325C11.7673 -4.38325 6.2354 -2.15562 2.08864 1.84248L31.703 32.5579ZM17.5159 38.2834C12.23 38.2834 7.14276 36.2351 3.3288 32.5579L32.9431 1.84248C28.7964 -2.15562 23.2645 -4.38325 17.5159 -4.38325V38.2834ZM3.05672 32.2908C-0.780155 28.4569 -2.94316 23.2506 -2.94316 17.8132H39.7235C39.7235 11.9161 37.3776 6.26883 33.2152 2.10953L3.05672 32.2908ZM-2.94316 17.8132C-2.94316 12.3759 -0.780195 7.16965 3.05672 3.33564L33.2152 33.5169C37.3777 29.3576 39.7235 23.7103 39.7235 17.8132H-2.94316ZM3.42266 2.97863C5.23728 1.25028 7.60189 0.229308 10.0909 0.0882808L12.5045 42.6866C20.1126 42.2556 27.3255 39.1351 32.8492 33.874L3.42266 2.97863ZM10.8803 0.0582032L10.2892 0.0697705L11.124 42.7283L11.7151 42.7167L10.8803 0.0582032Z" fill="#F9F9F9" mask="url(#path-9-inside-5_141_1287)"/>
</svg>