<svg xmlns="http://www.w3.org/2000/svg" width="27" height="25" viewBox="0 0 27 25" fill="none">
  <path d="M8.26849 19.1368C7.56964 19.501 6.75606 19.1192 6.45127 18.2842L6.21719 17.6428C5.67247 16.1503 5.97171 14.4053 6.96182 13.3007C7.70656 12.4697 7.89418 11.1335 7.41799 10.0512C6.8966 8.86612 5.7083 8.31481 4.654 8.76885C3.53854 9.24837 2.91403 10.6875 3.23136 12.0437C3.25972 12.165 3.2957 12.2856 3.33832 12.4023C3.6431 13.2374 3.32364 14.2096 2.62484 14.5739C1.92604 14.9381 1.11241 14.5563 0.807621 13.7213C0.714199 13.4653 0.635085 13.1998 0.572458 12.9321C-0.132252 9.92012 1.24928 6.72759 3.71802 5.66498C6.06151 4.65584 8.70278 5.88144 9.86185 8.5159C10.9153 10.9103 10.4976 13.8696 8.84613 15.7123C8.70952 15.8647 8.67012 16.1105 8.74799 16.3239L8.98207 16.9653C9.28675 17.8003 8.96734 18.7726 8.26849 19.1368Z" fill="#F9F9F9"/>
  <path d="M9.91063 23.636C9.21178 24.0002 8.3982 23.6185 8.09341 22.7834L8.08884 22.7709C7.78406 21.9358 8.10352 20.9636 8.80232 20.5993C9.50117 20.2351 10.3148 20.6169 10.6195 21.4519L10.6241 21.4644C10.9289 22.2996 10.6094 23.2718 9.91063 23.636Z" fill="#F9F9F9"/>
  <path d="M1.69109 12.3492C1.75346 12.617 1.83294 12.8821 1.92636 13.1381C2.14359 13.7333 2.61915 14.0985 3.12742 14.1266C2.99507 14.3143 2.82585 14.469 2.62485 14.5738C1.92647 14.9377 1.11252 14.5565 0.807679 13.7212C0.714257 13.4651 0.635403 13.1996 0.573035 12.932C-0.132246 9.91952 1.2498 6.72723 3.71823 5.66456C3.80668 5.62659 3.89559 5.59189 3.98497 5.56061C2.06214 6.91873 1.07224 9.70349 1.69109 12.3492Z" fill="#F9F9F9"/>
  <path d="M8.08039 12.7175C7.09043 13.8223 6.79088 15.5677 7.3356 17.0601L7.56963 17.7013C7.78685 18.2965 8.26303 18.6613 8.77131 18.6895C8.63895 18.8771 8.46973 19.0318 8.26874 19.1366C7.56973 19.5009 6.75641 19.1193 6.45157 18.284L6.21754 17.6428C5.67287 16.1504 5.97175 14.4053 6.96233 13.3002C7.70686 12.469 7.89422 11.1336 7.41798 10.0513C6.97042 9.03327 6.03085 8.48289 5.10669 8.63641C5.30126 8.44603 5.52507 8.29251 5.77272 8.18589C6.82712 7.73165 8.01522 8.28284 8.53661 9.46824C9.0129 10.5505 8.82491 11.8863 8.08039 12.7175Z" fill="#F9F9F9"/>
  <path d="M10.4134 23.1885C10.2811 23.3761 10.1119 23.5308 9.91087 23.6356C9.21186 23.9999 8.39854 23.6183 8.0937 22.783L8.08903 22.7702C7.78445 21.9356 8.1035 20.963 8.8025 20.5987C9.0035 20.4939 9.21352 20.451 9.41861 20.4628C9.09034 20.9278 8.99013 21.5931 9.20709 22.1875L9.21176 22.2003C9.42898 22.7954 9.90517 23.1603 10.4134 23.1885Z" fill="#F9F9F9"/>
  <path d="M19.2802 18.9761C18.5438 18.7403 18.1068 17.8357 18.3041 16.9557L18.4556 16.2798C18.8083 14.707 19.9526 13.5655 21.303 13.4393C22.3189 13.3444 23.1626 12.4393 23.3549 11.2384C23.5655 9.92329 22.9239 8.60705 21.8627 8.17661C20.7403 7.72058 19.5013 8.38068 19.0419 9.67747C19.0008 9.79338 18.966 9.91456 18.9385 10.0375C18.7411 10.9176 17.9842 11.4398 17.2477 11.204C16.5113 10.9682 16.0743 10.0636 16.2716 9.18358C16.3321 8.91378 16.4087 8.64726 16.4994 8.39134C17.5197 5.51123 20.2654 4.04414 22.75 5.05235C25.1088 6.00908 26.5347 8.93497 26.0667 11.8583C25.6413 14.5153 23.771 16.518 21.5184 16.7286C21.332 16.746 21.173 16.9088 21.1225 17.1337L20.971 17.8096C20.7736 18.6897 20.0166 19.2119 19.2802 18.9761Z" fill="#F9F9F9"/>
  <path d="M18.2169 23.7173C17.4804 23.4815 17.0434 22.577 17.2407 21.6969L17.2437 21.6838C17.441 20.8037 18.198 20.2815 18.9344 20.5173C19.6709 20.7531 20.1078 21.6577 19.9105 22.5377L19.9076 22.5509C19.7103 23.4309 18.9533 23.9531 18.2169 23.7173Z" fill="#F9F9F9"/>
  <path d="M17.6778 8.7692C17.5868 9.025 17.5107 9.29152 17.4502 9.56133C17.3095 10.1885 17.4909 10.8283 17.8736 11.229C17.6722 11.2771 17.4592 11.272 17.2474 11.2042C16.5114 10.9685 16.0739 10.0641 16.2712 9.18385C16.3317 8.91405 16.4086 8.64778 16.4995 8.39197C17.5195 5.51113 20.2655 4.04459 22.75 5.05249C22.839 5.08867 22.9266 5.12777 23.0128 5.16989C20.8008 4.79942 18.5741 6.23944 17.6778 8.7692Z" fill="#F9F9F9"/>
  <path d="M22.4816 13.8166C21.1312 13.9429 19.9864 15.0846 19.6338 16.6572L19.4823 17.333C19.3416 17.9601 19.5236 18.6002 19.9063 19.0008C19.7049 19.049 19.4919 19.0439 19.2801 18.9761C18.5435 18.7402 18.1066 17.8359 18.304 16.9557L18.4555 16.28C18.8082 14.7074 19.9523 13.5655 21.3033 13.4394C22.3191 13.3441 23.1623 12.4394 23.3545 11.2385C23.5356 10.109 23.0881 8.97874 22.2854 8.41039C22.5368 8.40642 22.7919 8.45314 23.0412 8.5543C24.1026 8.98456 24.7441 10.3007 24.5334 11.616C24.3412 12.8168 23.4973 13.7213 22.4816 13.8166Z" fill="#F9F9F9"/>
  <path d="M18.8433 23.742C18.6419 23.7901 18.429 23.785 18.2171 23.7172C17.4805 23.4813 17.0436 22.5772 17.241 21.6969L17.2441 21.6834C17.4413 20.8039 18.1981 20.2811 18.9347 20.5169C19.1465 20.5848 19.3332 20.7076 19.4874 20.8696C18.9881 20.9887 18.5627 21.4343 18.4223 22.0606L18.4192 22.0741C18.2786 22.7013 18.4606 23.3414 18.8433 23.742Z" fill="#F9F9F9"/>
  <path d="M13.8909 16.7843C13.0349 16.7843 12.341 15.9551 12.341 14.9322V14.1466C12.341 12.3184 13.3044 10.6832 14.7382 10.0774C15.8167 9.62165 16.5117 8.34711 16.4281 6.9779C16.3367 5.47865 15.3209 4.27392 14.0653 4.17567C12.7372 4.07084 11.554 5.21696 11.3712 6.78287C11.3548 6.92282 11.3465 7.0663 11.3465 7.20929C11.3465 8.23219 10.6526 9.06142 9.79662 9.06142C8.94063 9.06142 8.2467 8.23219 8.2467 7.20929C8.2467 6.89575 8.265 6.58004 8.30109 6.27102C8.70718 2.79332 11.328 0.248816 14.2678 0.479341C17.0586 0.697723 19.3164 3.37574 19.5197 6.70859C19.7045 9.73775 18.1631 12.5592 15.7714 13.5698C15.5736 13.6533 15.4407 13.8852 15.4407 14.1466V14.9322C15.4408 15.9551 14.7469 16.7843 13.8909 16.7843Z" fill="#F9F9F9"/>
  <path d="M13.8911 22.2949C13.0351 22.2949 12.3412 21.4657 12.3412 20.4428V20.4274C12.3412 19.4045 13.0351 18.5753 13.8911 18.5753C14.7471 18.5753 15.441 19.4045 15.441 20.4274V20.4428C15.441 21.4657 14.7471 22.2949 13.8911 22.2949Z" fill="#F9F9F9"/>
  <path d="M9.67135 6.27113C9.63496 6.58009 9.61718 6.89561 9.61718 7.20921C9.61718 7.93821 9.9694 8.56913 10.4819 8.87071C10.2752 8.99282 10.043 9.06128 9.79681 9.06128C8.94134 9.06128 8.24695 8.23236 8.24695 7.20921C8.24695 6.89561 8.26551 6.58015 8.3019 6.27113C8.70758 2.79269 11.3289 0.248677 14.2684 0.479016C14.3737 0.487317 14.4782 0.499336 14.5819 0.515072C12.093 0.881459 10.0282 3.21638 9.67135 6.27113Z" fill="#F9F9F9"/>
  <path d="M16.1087 10.077C14.6749 10.6829 13.7111 12.3185 13.7111 14.1466V14.932C13.7111 15.661 14.0641 16.2919 14.5767 16.5935C14.37 16.7156 14.1377 16.7841 13.8915 16.7841C13.0353 16.7841 12.3417 15.9551 12.3417 14.932V14.1466C12.3417 12.3185 13.3047 10.6829 14.7392 10.077C15.8176 9.62088 16.5121 8.34702 16.4285 6.97787C16.3503 5.69013 15.59 4.61978 14.5813 4.28208C14.853 4.19051 15.141 4.15253 15.436 4.1757C16.6917 4.27378 17.7074 5.47825 17.7987 6.97787C17.8823 8.34702 17.1871 9.62088 16.1087 10.077Z" fill="#F9F9F9"/>
  <path d="M14.5764 22.1044C14.3697 22.2265 14.1374 22.2949 13.8913 22.2949C13.0351 22.2949 12.3414 21.466 12.3414 20.4429V20.4271C12.3414 19.4049 13.0351 18.5751 13.8913 18.5751C14.1375 18.5751 14.3697 18.6435 14.5764 18.7656C14.0639 19.0682 13.7109 19.6991 13.7109 20.4271V20.4429C13.7109 21.1719 14.0639 21.8028 14.5764 22.1044Z" fill="#F9F9F9"/>
  <path d="M10.9759 21.266C10.7869 20.7483 10.4407 20.3496 10.0007 20.1431C9.56083 19.9367 9.07993 19.9474 8.64683 20.1732C8.21368 20.3989 7.87996 20.8128 7.70722 21.3384C7.53453 21.8641 7.54344 22.4387 7.73215 22.9559L7.73687 22.9689C7.92584 23.4866 8.2721 23.8853 8.7121 24.0917C8.92171 24.1901 9.14059 24.2391 9.35916 24.2391C9.59935 24.2391 9.83923 24.1798 10.066 24.0617C10.4992 23.8359 10.8329 23.4221 11.0056 22.8964C11.1783 22.3708 11.1693 21.7961 10.9806 21.279L10.9759 21.266ZM10.2817 22.5567C10.1849 22.8514 9.99788 23.0833 9.75514 23.2098C9.51231 23.3363 9.24272 23.3423 8.99626 23.2266C8.74969 23.111 8.55559 22.8874 8.44988 22.5978L8.44516 22.5848C8.33924 22.2947 8.33421 21.9726 8.43111 21.678C8.5279 21.3834 8.71495 21.1514 8.95768 21.0249C9.08481 20.9587 9.21924 20.9255 9.35387 20.9255C9.47638 20.9255 9.59904 20.953 9.71652 21.0081C9.96309 21.1238 10.1572 21.3473 10.2629 21.6369L10.2676 21.6499C10.3735 21.9401 10.3785 22.2622 10.2817 22.5567Z" fill="#F9F9F9"/>
  <path d="M25.4982 6.92467C25.3717 6.71726 25.1285 6.67166 24.9549 6.82276C24.7813 6.97386 24.7432 7.26454 24.8696 7.4719C25.6263 8.7128 25.9232 10.2798 25.6844 11.771C25.2916 14.2233 23.5657 16.0714 21.4873 16.2652C21.1379 16.2978 20.8403 16.598 20.7463 17.0134L20.595 17.6891C20.5264 17.9951 20.3622 18.2507 20.1328 18.409C19.9035 18.5673 19.6363 18.6092 19.3804 18.5272C19.1245 18.4454 18.9107 18.2494 18.7783 17.9752C18.6458 17.7011 18.6107 17.3818 18.6793 17.0759L18.8307 16.3995C19.1408 15.0171 20.1463 14.0136 21.3327 13.9026C22.5226 13.7916 23.511 12.7322 23.7363 11.3261C23.9829 9.78421 23.2307 8.24104 21.987 7.73662C21.286 7.45183 20.5254 7.54259 19.891 7.93815C19.9268 7.52332 19.9337 7.10099 19.9077 6.67457C19.8823 6.2585 19.8266 5.85215 19.7439 5.45832C20.6834 5.10569 21.6936 5.11461 22.625 5.49227C22.9896 5.64015 23.338 5.84305 23.6604 6.09526C23.7261 6.14661 23.7999 6.17121 23.873 6.17121C23.9998 6.17121 24.1241 6.09718 24.1987 5.961C24.3163 5.74628 24.266 5.45832 24.0863 5.31775C23.7092 5.02267 23.3015 4.78533 22.8749 4.6123C21.7854 4.1704 20.6039 4.16048 19.5061 4.57383C18.6689 2.04153 16.6605 0.200734 14.2934 0.0154969C11.3142 -0.218187 8.64091 2.2158 8.0024 5.63904C6.65001 4.76179 5.03933 4.60195 3.58625 5.22724C0.926727 6.37224 -0.561496 9.81159 0.198013 13.0562C0.264269 13.3419 0.349448 13.6281 0.451217 13.9071C0.640187 14.4248 0.986451 14.8235 1.42634 15.0298C1.86619 15.2362 2.34693 15.2255 2.78019 14.9997C3.21334 14.7739 3.54701 14.3599 3.7197 13.8342C3.89239 13.3084 3.88342 12.7339 3.69456 12.2167C3.65966 12.1211 3.62975 12.0207 3.6058 11.9192C3.3429 10.7951 3.86108 9.60337 4.78576 9.20595C5.6586 8.82996 6.64228 9.2863 7.07398 10.2674C7.46856 11.1648 7.31319 12.2724 6.69609 12.9611C5.58566 14.2004 5.25007 16.1566 5.8611 17.8285L6.09502 18.4698C6.38493 19.2641 7.03676 19.7389 7.7198 19.7388C7.95533 19.7388 8.19464 19.6823 8.42399 19.563C8.85709 19.3372 9.19081 18.9233 9.3635 18.3975C9.53619 17.8717 9.52722 17.2972 9.33841 16.7802L9.10449 16.1382C9.09174 16.1032 9.0978 16.0671 9.11159 16.0518C9.27329 15.8711 9.4266 15.6774 9.5672 15.476C9.70474 15.2789 9.6826 14.986 9.51763 14.8216C9.35277 14.6572 9.1076 14.6837 8.97001 14.8808C8.84994 15.0528 8.71888 15.2184 8.58103 15.3724C8.32399 15.6586 8.24788 16.1156 8.39159 16.5093L8.62556 17.1516C8.73148 17.4414 8.7365 17.7633 8.63966 18.0579C8.54287 18.3527 8.35582 18.5847 8.11334 18.7111C7.61212 18.9719 7.02644 18.697 6.80787 18.0984L6.5739 17.4569C6.0945 16.145 6.35693 14.6112 7.22697 13.6402C8.09935 12.6666 8.31953 11.1019 7.76241 9.83495C7.15107 8.44548 5.75793 7.79919 4.52239 8.33155C3.21651 8.89284 2.48494 10.5786 2.85718 12.1703C2.89093 12.3133 2.93282 12.4538 2.98181 12.5882C3.08773 12.878 3.09275 13.2 2.99591 13.4946C2.89912 13.7893 2.71212 14.0213 2.46933 14.1478C2.22655 14.2744 1.95712 14.2804 1.7106 14.1647C1.46409 14.0491 1.26998 13.8256 1.16417 13.5356C1.07697 13.2966 1.00408 13.0517 0.947257 12.8068C0.296723 10.0276 1.57177 7.08228 3.84988 6.10151C5.18304 5.52783 6.67209 5.72695 7.87834 6.62767C7.86538 6.82115 7.85807 7.0155 7.85807 7.2091C7.85807 8.48656 8.72779 9.52587 9.79681 9.52587L9.80225 9.52568C10.1342 10.6922 10.1334 11.9622 9.79323 13.1382C9.72309 13.3808 9.83082 13.6453 10.0337 13.7291C10.0758 13.7465 10.1187 13.7547 10.1608 13.7547C10.3219 13.7547 10.4726 13.6341 10.5283 13.4418C10.9146 12.1059 10.9256 10.6659 10.5681 9.334C11.2543 8.97691 11.7355 8.15901 11.7355 7.20903C11.7355 7.08724 11.7426 6.96544 11.7563 6.84686C11.9113 5.51997 12.9146 4.55029 14.04 4.63906C15.1031 4.72227 15.963 5.74213 16.0404 7.01141C16.1113 8.17233 15.5226 9.25284 14.6087 9.63899C13.0199 10.3102 11.9523 12.1216 11.9523 14.1463V14.9319C11.9523 16.2093 12.822 17.2487 13.891 17.2487C14.96 17.2487 15.8298 16.2093 15.8298 14.9319V14.1463C15.8298 14.0823 15.8591 14.0253 15.9012 14.0075C17.7251 13.2369 19.0856 11.481 19.6443 9.36256C20.1312 8.61678 20.9824 8.30987 21.737 8.61641C22.6156 8.97269 23.1468 10.0626 22.9726 11.1513C22.813 12.1471 22.1139 12.8975 21.2721 12.976C19.7578 13.1177 18.4749 14.3967 18.0797 16.159L17.9283 16.8353C17.8059 17.3807 17.8686 17.9505 18.1049 18.4397C18.3413 18.929 18.7229 19.2788 19.1793 19.4247C19.3318 19.4736 19.4866 19.4978 19.6404 19.4978C19.9468 19.4978 20.2493 19.4017 20.5219 19.2137C20.9311 18.9313 21.2239 18.4753 21.3463 17.9295L21.4975 17.2546C21.5062 17.2159 21.53 17.1932 21.5479 17.1915C23.9747 16.9652 25.9898 14.8081 26.4483 11.9455C26.7274 10.2028 26.3811 8.37262 25.4982 6.92467ZM15.642 13.1314C15.2891 13.2805 15.052 13.6884 15.052 14.1463V14.932C15.052 15.697 14.5312 16.3194 13.891 16.3194C13.2507 16.3194 12.7299 15.697 12.7299 14.932V14.1463C12.7299 12.5147 13.5891 11.0555 14.8679 10.5152C16.1112 9.98983 16.9123 8.52125 16.816 6.94388C16.7106 5.2146 15.539 3.82513 14.091 3.71182C14.026 3.70668 13.9614 3.70414 13.897 3.70414C12.4472 3.70414 11.1882 4.98854 10.9862 6.71843C10.9674 6.87939 10.9578 7.04443 10.9578 7.2091C10.9578 7.97415 10.437 8.59658 9.79676 8.59658C9.15649 8.59658 8.63567 7.97415 8.63567 7.2091C8.63567 6.91712 8.65273 6.62303 8.68637 6.33501C9.06457 3.09664 11.5049 0.728445 14.2426 0.9428C16.8408 1.14613 18.9429 3.63934 19.1321 6.74216C19.3041 9.56304 17.869 12.1904 15.642 13.1314Z" fill="#F9F9F9"/>
  <path d="M19.0349 20.0683C18.5784 19.9222 18.1017 19.9971 17.6924 20.2795C17.2831 20.5619 16.9903 21.0178 16.8683 21.5622L16.865 21.5765C16.6126 22.7026 17.1738 23.8642 18.1161 24.1659C18.2689 24.2148 18.4224 24.2382 18.5736 24.2382C19.3546 24.2382 20.0715 23.6142 20.2833 22.67L20.286 22.6577C20.4084 22.1122 20.3456 21.5425 20.1093 21.0534C19.8729 20.5644 19.4914 20.2145 19.0349 20.0683ZM19.5346 22.4182L19.5319 22.4305C19.3903 23.0617 18.8455 23.4375 18.3173 23.2684C17.7892 23.0993 17.4746 22.4482 17.6159 21.8182L17.6191 21.8039C17.6876 21.4982 17.8517 21.2427 18.0811 21.0844C18.3105 20.9261 18.5776 20.8841 18.8336 20.966C19.0895 21.048 19.3034 21.244 19.4357 21.5181C19.5682 21.7922 19.6034 22.1116 19.5346 22.4182Z" fill="#F9F9F9"/>
  <path d="M13.8911 18.1107C12.8221 18.1107 11.9524 19.15 11.9524 20.4274V20.4428C11.9524 21.7203 12.8221 22.7596 13.8911 22.7596C14.9601 22.7596 15.8298 21.7203 15.8298 20.4428V20.4274C15.8298 19.1499 14.9601 18.1107 13.8911 18.1107ZM15.0522 20.4427C15.0522 21.2078 14.5313 21.8302 13.8911 21.8302C13.2509 21.8302 12.73 21.2078 12.73 20.4427V20.4274C12.73 19.6623 13.2509 19.0399 13.8911 19.0399C14.5313 19.0399 15.0522 19.6623 15.0522 20.4274V20.4427Z" fill="#F9F9F9"/>
</svg>