<svg xmlns="http://www.w3.org/2000/svg" width="27" height="25" viewBox="0 0 17 17" fill="none">
  <path d="M15.1157 5.07254L9.89573 0.892538C9.37749 0.496147 8.74318 0.281372 8.09073 0.281372C7.43828 0.281372 6.80397 0.496147 6.28573 0.892538L1.06573 5.07254C0.680485 5.40417 0.38374 5.82639 0.202198 6.30119C0.0206558 6.77599 -0.0399858 7.28848 0.0257295 7.79254L1.02573 13.7925C1.15171 14.4605 1.50381 15.0647 2.02283 15.5036C2.54185 15.9425 3.19615 16.1893 3.87573 16.2025H12.3057C12.9838 16.184 13.6354 15.9353 14.1533 15.4973C14.6713 15.0593 15.0248 14.4581 15.1557 13.7925L16.1557 7.79254C16.2168 7.28875 16.154 6.77767 15.9728 6.30367C15.7915 5.82966 15.4973 5.40706 15.1157 5.07254ZM14.0457 13.6025C13.9608 14.0063 13.7435 14.3702 13.4283 14.6365C13.1131 14.9028 12.718 15.0562 12.3057 15.0725H3.87573C3.46343 15.0562 3.06838 14.9028 2.75318 14.6365C2.43799 14.3702 2.22069 14.0063 2.13573 13.6025L1.13573 7.60254C1.1084 7.29771 1.15094 6.99067 1.26011 6.70475C1.36927 6.41884 1.5422 6.16158 1.76573 5.95254L6.98873 1.77254C7.30473 1.53273 7.69209 1.40596 8.08873 1.41254C8.49025 1.4047 8.88222 1.53536 9.19873 1.78254L14.4187 5.95254C14.6413 6.16444 14.8134 6.4236 14.9225 6.71091C15.0315 6.99821 15.0747 7.30633 15.0487 7.61254L14.0457 13.6025Z" fill="white"/>
  <path d="M11.1958 11.2725V15.0725H10.0558V11.2725C10.0558 10.7527 9.84927 10.2542 9.4817 9.88661C9.11413 9.51904 8.61559 9.31254 8.09577 9.31254C7.57595 9.31254 7.07741 9.51904 6.70984 9.88661C6.34227 10.2542 6.13577 10.7527 6.13577 11.2725V15.0725H4.98877V11.2725C4.98877 10.8648 5.06908 10.461 5.22512 10.0843C5.38117 9.70759 5.60988 9.3653 5.8982 9.07698C6.18653 8.78865 6.52882 8.55994 6.90554 8.4039C7.28225 8.24786 7.68602 8.16754 8.09377 8.16754C8.50152 8.16754 8.90529 8.24786 9.282 8.4039C9.65872 8.55994 10.001 8.78865 10.2893 9.07698C10.5777 9.3653 10.8064 9.70759 10.9624 10.0843C11.1185 10.461 11.1988 10.8648 11.1988 11.2725H11.1958Z" fill="white"/>
</svg>