<svg xmlns="http://www.w3.org/2000/svg" width="16" height="19" viewBox="0 0 16 19" fill="none">
  <path d="M15.1778 2.45024C14.7177 1.97364 14.0751 1.69992 13.4153 1.69992H3.09911C2.43932 1.69992 1.7967 1.97328 1.33657 2.45024C0.89468 2.90822 0.663182 3.50075 0.685008 4.12082C0.701467 4.55698 1.03065 4.90548 1.45321 4.95557L1.95485 15.933C2.01675 17.2712 3.07656 18.3195 4.36788 18.3195H12.1465C13.4378 18.3195 14.4976 17.2712 14.5592 15.9323L15.0608 4.95521C15.4834 4.90512 15.8126 4.55662 15.829 4.11939C15.8512 3.50075 15.6197 2.90787 15.1778 2.45024ZM2.16023 3.24527C2.40604 2.99088 2.7481 2.84489 3.09911 2.84489H13.4153C13.7663 2.84489 14.1083 2.99088 14.3542 3.24527C14.5134 3.41022 14.6189 3.60737 14.6626 3.81669H1.8518C1.89581 3.60701 2.00137 3.41022 2.16023 3.24527ZM13.4153 15.8797C13.382 16.6056 12.8246 17.1745 12.1465 17.1745H4.36788C3.68984 17.1745 3.13238 16.606 3.09875 15.88L2.59997 4.96166H13.9144L13.4153 15.8797ZM5.95366 6.80112V15.3362C5.95366 15.6525 5.69747 15.9086 5.38117 15.9086C5.06488 15.9086 4.80869 15.6525 4.80869 15.3362V6.80112C4.80869 6.48482 5.06488 6.22864 5.38117 6.22864C5.69747 6.22864 5.95366 6.48482 5.95366 6.80112ZM8.83004 6.80112V15.3362C8.83004 15.6525 8.57385 15.9086 8.25755 15.9086C7.94125 15.9086 7.68507 15.6525 7.68507 15.3362V6.80112C7.68507 6.48482 7.94125 6.22864 8.25755 6.22864C8.57385 6.22864 8.83004 6.48482 8.83004 6.80112ZM11.7057 6.80112V15.3362C11.7057 15.6525 11.4495 15.9086 11.1332 15.9086C10.8169 15.9086 10.5607 15.6525 10.5607 15.3362V6.80112C10.5607 6.48482 10.8169 6.22864 11.1332 6.22864C11.4492 6.22864 11.7057 6.48482 11.7057 6.80112ZM6.31289 0.572485C6.31289 0.256187 6.56908 0 6.88538 0H9.62901C9.94531 0 10.2015 0.256187 10.2015 0.572485C10.2015 0.888783 9.94531 1.14497 9.62901 1.14497H6.88538C6.56908 1.14497 6.31289 0.888783 6.31289 0.572485Z" fill="#FFF"/>
</svg>