<svg xmlns="http://www.w3.org/2000/svg" width="27" height="25" viewBox="0 0 16 18" fill="none">
  <path d="M9.3524 12.6811L11.7302 10.4121H5.25068C4.5598 10.4121 4 9.8779 4 9.21863C4 8.55935 4.5598 8.02516 5.25068 8.02516H11.7297L9.3519 5.75612C8.86364 5.29019 8.86364 4.53449 9.3519 4.06808C9.84016 3.60214 10.6321 3.60214 11.1209 4.06808L15.6338 8.3746C16.1221 8.84054 16.1221 9.59624 15.6338 10.0627L11.1209 14.3692C10.6326 14.8351 9.84066 14.8351 9.3519 14.3692C8.86364 13.9032 8.86364 13.1475 9.3519 12.6811H9.3524Z" fill="#F9F9F9"/>
  <path d="M7 2.00651C7 1.29508 6.45979 0.718628 5.7931 0.718628H2.41379C1.0809 0.718628 0 1.87205 0 3.29439V15.1429C0 16.5652 1.0809 17.7186 2.41379 17.7186H5.7931C6.45979 17.7186 7 17.1422 7 16.4307C7 15.7193 6.45979 15.1429 5.7931 15.1429H3.01724C2.68414 15.1429 2.41379 14.8544 2.41379 14.4989V3.93832C2.41379 3.58287 2.68414 3.29439 3.01724 3.29439H5.7931C6.45979 3.29439 7 2.71793 7 2.00651Z" fill="#F9F9F9"/>
</svg>