<svg width="41" height="45" viewBox="0 0 306 308" fill="none" xmlns="http://www.w3.org/2000/svg">
<ellipse cx="153" cy="154" rx="153" ry="154" fill="white"/>
<path d="M225 65H81C74.6348 65 68.5303 67.5286 64.0294 72.0294C59.5286 76.5303 57 82.6348 57 89C57 95.3652 59.5286 101.47 64.0294 105.971C68.5303 110.471 74.6348 113 81 113H98.1429C99.9615 113 101.706 112.278 102.992 110.992C104.278 109.706 105 107.961 105 106.143C105 104.324 104.278 102.58 102.992 101.294C101.706 100.008 99.9615 99.2857 98.1429 99.2857H81C78.2721 99.2857 75.6559 98.202 73.7269 96.2731C71.798 94.3441 70.7143 91.7279 70.7143 89C70.7143 86.2721 71.798 83.6559 73.7269 81.7269C75.6559 79.798 78.2721 78.7143 81 78.7143H225C227.728 78.7143 230.344 79.798 232.273 81.7269C234.202 83.6559 235.286 86.2721 235.286 89C235.286 91.7279 234.202 94.3441 232.273 96.2731C230.344 98.202 227.728 99.2857 225 99.2857H125.571C123.753 99.2857 122.009 100.008 120.723 101.294C119.437 102.58 118.714 104.324 118.714 106.143C118.714 107.961 119.437 109.706 120.723 110.992C122.009 112.278 123.753 113 125.571 113H225C231.365 113 237.47 110.471 241.971 105.971C246.471 101.47 249 95.3652 249 89C249 82.6348 246.471 76.5303 241.971 72.0294C237.47 67.5286 231.365 65 225 65Z" fill="black"/>
<path d="M225 131H81C74.6348 131 68.5303 133.423 64.0294 137.737C59.5286 142.05 57 147.9 57 154C57 160.1 59.5286 165.95 64.0294 170.263C68.5303 174.577 74.6348 177 81 177H139.286C141.104 177 142.848 176.308 144.134 175.075C145.42 173.843 146.143 172.171 146.143 170.429C146.143 168.686 145.42 167.014 144.134 165.782C142.848 164.549 141.104 163.857 139.286 163.857H81C78.2721 163.857 75.6559 162.819 73.7269 160.97C71.798 159.121 70.7143 156.614 70.7143 154C70.7143 151.386 71.798 148.879 73.7269 147.03C75.6559 145.181 78.2721 144.143 81 144.143H225C227.728 144.143 230.344 145.181 232.273 147.03C234.202 148.879 235.286 151.386 235.286 154C235.286 156.614 234.202 159.121 232.273 160.97C230.344 162.819 227.728 163.857 225 163.857H166.714C164.896 163.857 163.152 164.549 161.866 165.782C160.58 167.014 159.857 168.686 159.857 170.429C159.857 172.171 160.58 173.843 161.866 175.075C163.152 176.308 164.896 177 166.714 177H225C231.365 177 237.47 174.577 241.971 170.263C246.471 165.95 249 160.1 249 154C249 147.9 246.471 142.05 241.971 137.737C237.47 133.423 231.365 131 225 131Z" fill="black"/>
<path d="M225 229.286H207.857C206.039 229.286 204.294 230.008 203.008 231.294C201.722 232.58 201 234.324 201 236.143C201 237.961 201.722 239.706 203.008 240.992C204.294 242.278 206.039 243 207.857 243H225C231.365 243 237.47 240.471 241.971 235.971C246.471 231.47 249 225.365 249 219C249 212.635 246.471 206.53 241.971 202.029C237.47 197.529 231.365 195 225 195H81C74.6348 195 68.5303 197.529 64.0294 202.029C59.5286 206.53 57 212.635 57 219C57 225.365 59.5286 231.47 64.0294 235.971C68.5303 240.471 74.6348 243 81 243H180.429C182.247 243 183.991 242.278 185.277 240.992C186.563 239.706 187.286 237.961 187.286 236.143C187.286 234.324 186.563 232.58 185.277 231.294C183.991 230.008 182.247 229.286 180.429 229.286H81C78.2721 229.286 75.6559 228.202 73.7269 226.273C71.798 224.344 70.7143 221.728 70.7143 219C70.7143 216.272 71.798 213.656 73.7269 211.727C75.6559 209.798 78.2721 208.714 81 208.714H225C227.728 208.714 230.344 209.798 232.273 211.727C234.202 213.656 235.286 216.272 235.286 219C235.286 221.728 234.202 224.344 232.273 226.273C230.344 228.202 227.728 229.286 225 229.286Z" fill="black"/>
</svg>
