<svg xmlns="http://www.w3.org/2000/svg" width="27" height="25" viewBox="0 0 19 19" fill="none">
  <path d="M11.5176 9.53886C11.332 9.38796 11.1059 9.26243 10.8389 9.16183C10.5717 9.06137 10.2748 8.96715 9.94811 8.87901C9.69675 8.81625 9.47526 8.75652 9.28362 8.69999C9.09184 8.64331 8.93326 8.58069 8.80772 8.5114C8.6819 8.4424 8.58623 8.36224 8.52013 8.27106C8.45417 8.18002 8.42126 8.06536 8.42126 7.92707C8.42126 7.68832 8.50911 7.50292 8.68509 7.37086C8.86092 7.23895 9.12808 7.173 9.48627 7.173C9.68733 7.173 9.88535 7.19807 10.0802 7.24837C10.2748 7.29868 10.4556 7.35999 10.622 7.43218C10.7884 7.50452 10.9299 7.5783 11.0463 7.65368C11.1624 7.72906 11.2426 7.78893 11.2867 7.8327L11.8616 6.77711C11.5661 6.57606 11.2207 6.40167 10.8248 6.25396C10.5819 6.16336 10.3246 6.10088 10.0532 6.0658V4.86859H8.93993V6.0816C8.81381 6.10349 8.69103 6.13248 8.57202 6.16916C8.2766 6.26034 8.01741 6.39384 7.79446 6.56968C7.57123 6.74566 7.39684 6.96556 7.27131 7.22953C7.14548 7.4935 7.08272 7.79516 7.08272 8.13436C7.08272 8.3921 7.122 8.61359 7.20057 8.799C7.27914 8.9844 7.39684 9.14777 7.55398 9.2891C7.71111 9.43044 7.90753 9.55307 8.14309 9.65672C8.37879 9.76036 8.65682 9.85618 8.97733 9.94417C9.24115 10.0195 9.48004 10.0888 9.69371 10.1516C9.90723 10.2144 10.0896 10.2835 10.2403 10.3589C10.3911 10.4343 10.5074 10.5224 10.5891 10.6229C10.6707 10.7235 10.7116 10.846 10.7116 10.9905C10.7116 11.4491 10.3534 11.6785 9.63703 11.6785C9.37944 11.6785 9.12808 11.6471 8.8831 11.5842C8.63798 11.5216 8.41489 11.4445 8.21383 11.3533C8.01263 11.2623 7.83824 11.1711 7.69067 11.0799C7.54296 10.9889 7.44091 10.9151 7.38438 10.8584L6.80933 11.9801C7.19897 12.2567 7.63892 12.4702 8.12903 12.6211C8.39735 12.7036 8.66769 12.7629 8.93993 12.8001V14.122H10.0532V12.8246C10.225 12.8068 10.3927 12.7784 10.5562 12.739C10.8545 12.6668 11.1185 12.552 11.348 12.3948C11.5773 12.2378 11.7594 12.032 11.8946 11.7775C12.0297 11.5231 12.0973 11.2166 12.0973 10.8584C12.0973 10.5507 12.047 10.2915 11.9465 10.0809C11.8458 9.87038 11.7028 9.68962 11.5176 9.53886Z" fill="#F9F9F9"/>
  <path d="M16.2175 2.78248C14.4232 0.988182 12.0375 0 9.5 0C6.9625 0 4.57677 0.988182 2.78248 2.78248C0.988182 4.57677 0 6.9625 0 9.5C0 12.0375 0.988182 14.4232 2.78248 16.2175C4.57677 18.0118 6.9625 19 9.5 19C12.0375 19 14.4232 18.0118 16.2175 16.2175C18.0118 14.4232 19 12.0375 19 9.5C19 6.9625 18.0118 4.57677 16.2175 2.78248ZM9.5 17.8867C4.87553 17.8867 1.11328 14.1245 1.11328 9.5C1.11328 4.87553 4.87553 1.11328 9.5 1.11328C14.1245 1.11328 17.8867 4.87553 17.8867 9.5C17.8867 14.1245 14.1245 17.8867 9.5 17.8867Z" fill="#F9F9F9"/>
  <path d="M9.50025 2.276C5.51694 2.276 2.27625 5.51669 2.27625 9.50001C2.27625 13.4833 5.51694 16.724 9.50025 16.724C13.4836 16.724 16.7243 13.4833 16.7243 9.50001C16.7243 5.51669 13.4836 2.276 9.50025 2.276ZM9.50025 15.6107C6.13084 15.6107 3.38953 12.8694 3.38953 9.50001C3.38953 6.13059 6.13084 3.38928 9.50025 3.38928C12.8697 3.38928 15.611 6.13059 15.611 9.50001C15.611 12.8694 12.8697 15.6107 9.50025 15.6107Z" fill="#F9F9F9"/>
</svg>