<svg xmlns="http://www.w3.org/2000/svg" width="27" height="25" viewBox="0 0 16 16" fill="none">
<path d="M6.16661 0H1.16662C0.523314 0 0 0.523314 0 1.16662V4.16661C0 4.81004 0.523314 5.33336 1.16662 5.33336H6.16661C6.81004 5.33336 7.33335 4.81004 7.33335 4.16661V1.16662C7.33335 0.523314 6.81004 0 6.16661 0Z" fill="#FF914C"/>
<path d="M6.16661 6.66663H1.16662C0.523314 6.66663 0 7.18994 0 7.83337V14.8334C0 15.4767 0.523314 16 1.16662 16H6.16661C6.81004 16 7.33335 15.4767 7.33335 14.8334V7.83337C7.33335 7.18994 6.81004 6.66663 6.16661 6.66663Z" fill="#3CEBFF"/>
<path d="M14.8335 10.6666H9.83349C9.19006 10.6666 8.66675 11.1899 8.66675 11.8334V14.8334C8.66675 15.4767 9.19006 16 9.83349 16H14.8335C15.4768 16 16.0001 15.4767 16.0001 14.8334V11.8334C16.0001 11.1899 15.4768 10.6666 14.8335 10.6666Z" fill="#FF914C"/>
<path d="M14.8335 6.10352e-05H9.83349C9.19006 6.10352e-05 8.66675 0.523375 8.66675 1.16668V8.16666C8.66675 8.81009 9.19006 9.33341 9.83349 9.33341H14.8335C15.4768 9.33341 16.0001 8.81009 16.0001 8.16666V1.16668C16.0001 0.523375 15.4768 6.10352e-05 14.8335 6.10352e-05Z" fill="#3CEBFF"/>
</svg>