<svg xmlns="http://www.w3.org/2000/svg" width="27" height="25" viewBox="0 0 18 18" fill="none">
  <path d="M7 3L17 3.00002" stroke="#3CEBFF" stroke-width="2" stroke-linecap="round" stroke-linejoin="round"/>
  <path d="M1 3.00002L3 3" stroke="#3CEBFF" stroke-width="2" stroke-linecap="round" stroke-linejoin="round"/>
  <path d="M1 9H13" stroke="#FF914C" stroke-width="2" stroke-linecap="round" stroke-linejoin="round"/>
  <path d="M1 15H6" stroke="#3CEBFF" stroke-width="2" stroke-linecap="round" stroke-linejoin="round"/>
  <path d="M10 15H17" stroke="#3CEBFF" stroke-width="2" stroke-linecap="round" stroke-linejoin="round"/>
  <path d="M5 5C6.10457 5 7 4.10457 7 3C7 1.89543 6.10457 1 5 1C3.89543 1 3 1.89543 3 3C3 4.10457 3.89543 5 5 5Z" stroke="#3CEBFF" stroke-width="2" stroke-linecap="round" stroke-linejoin="round"/>
  <path d="M15 11C16.1046 11 17 10.1046 17 9C17 7.89543 16.1046 7 15 7C13.8954 7 13 7.89543 13 9C13 10.1046 13.8954 11 15 11Z" stroke="#FF914C" stroke-width="2" stroke-linecap="round" stroke-linejoin="round"/>
  <path d="M8 17C9.10457 17 10 16.1046 10 15C10 13.8954 9.10457 13 8 13C6.89543 13 6 13.8954 6 15C6 16.1046 6.89543 17 8 17Z" stroke="#3CEBFF" stroke-width="2" stroke-linecap="round" stroke-linejoin="round"/>
</svg>