<svg xmlns="http://www.w3.org/2000/svg" width="70" height="80" viewBox="0 0 70 80" fill="none">
  <path d="M2.15369 39.7989V71.8927C2.15369 75.6515 5.20073 78.6986 8.95957 78.6986H49.3828C53.1416 78.6986 56.1887 75.6515 56.1887 71.8927V39.7989C56.1887 36.04 53.1416 32.993 49.3828 32.993H8.95957C5.20073 32.993 2.15369 36.04 2.15369 39.7989Z" fill="#FF914C"/>
  <path d="M42.9889 26.1372H46.2982C47.5345 26.1372 48.5335 25.1381 48.5335 23.9018V20.5676C48.5335 15.2228 46.3731 10.39 42.8641 6.89336C39.355 3.37178 34.4972 1.21138 29.1274 1.22387C18.5127 1.24885 9.82117 10.5273 9.82117 21.142V33.0055H17.5886V20.9797C17.5886 14.8232 22.2341 9.4284 28.3781 9.0163C35.1216 8.56673 40.7536 13.924 40.7536 20.5676V23.9018C40.7536 25.1381 41.7526 26.1372 42.9889 26.1372Z" fill="#A09F9F"/>
  <path d="M32.3119 54.8342L33.6231 65.0119H24.6943L26.0305 54.8218C25.0814 53.9851 24.4945 52.7488 24.4945 51.3751C24.4945 48.7901 26.605 46.7047 29.1775 46.7047C31.7624 46.7047 33.8479 48.8026 33.8479 51.3876C33.8479 52.7488 33.261 53.9726 32.3119 54.8342Z" fill="#3CEBFF"/>
  <g opacity="0.12">
    <path d="M51.106 33.2302C51.2559 33.7797 51.3308 34.3666 51.3308 34.9535C51.3308 56.4452 33.9102 73.8657 12.4186 73.8657H4.11419C3.51478 73.8657 2.94034 73.7783 2.39087 73.641C3.15263 76.5631 5.81254 78.7235 8.97197 78.7235H49.3952C53.154 78.7235 56.2011 75.6765 56.2011 71.9176V39.8238C56.1886 36.6394 54.0282 33.992 51.106 33.2302Z" fill="#1F2336"/>
  </g>
  <g opacity="0.12">
    <path d="M9.82117 29.3715H17.5886V33.0054H9.82117V29.3715Z" fill="#1F2336"/>
  </g>
  <path d="M49.3828 79.9224H8.95959C4.53889 79.9224 0.942383 76.3259 0.942383 71.9052V39.8113C0.942383 35.3906 4.53889 31.7941 8.95959 31.7941H49.3828C53.8035 31.7941 57.4 35.3906 57.4 39.8113V71.9052C57.4 76.3259 53.8035 79.9224 49.3828 79.9224ZM8.95959 34.2043C5.87509 34.2043 3.36503 36.7143 3.36503 39.7988V71.8927C3.36503 74.9772 5.87509 77.4872 8.95959 77.4872H49.3828C52.4673 77.4872 54.9774 74.9772 54.9774 71.8927V39.7988C54.9774 36.7143 52.4673 34.2043 49.3828 34.2043H8.95959Z" fill="#1F2336"/>
  <path d="M17.5886 34.2042H9.82119C9.14684 34.2042 8.60986 33.6672 8.60986 32.9929V21.1294C8.60986 9.70301 18.0007 0.0249147 29.1149 -6.10352e-05H29.1774C34.6845 -6.10352e-05 39.842 2.13536 43.7133 6.03158C47.597 9.90281 49.7449 15.0603 49.7449 20.5674V23.9017C49.7449 25.7999 48.1964 27.3484 46.2982 27.3484H42.989C41.0908 27.3484 39.5423 25.7999 39.5423 23.9017V20.5674C39.5423 17.7077 38.3435 14.9479 36.2455 12.9998C34.1226 11.0142 31.3628 10.0277 28.4531 10.2275C23.0333 10.5896 18.8 15.3101 18.8 20.9795V33.0054C18.8 33.6672 18.263 34.2042 17.5886 34.2042ZM11.0325 31.7816H16.3898V20.9671C16.3898 14.0238 21.6222 8.24193 28.3032 7.79237C31.8748 7.5551 35.2964 8.76642 37.9064 11.214C40.4914 13.6242 41.965 17.0334 41.965 20.555V23.8892C41.965 24.4512 42.427 24.9132 42.989 24.9132H46.2982C46.8602 24.9132 47.3222 24.4512 47.3222 23.8892V20.555C47.3222 15.6972 45.4366 11.1516 42.0024 7.72993C38.5807 4.29576 34.0352 2.4101 29.1774 2.4101C29.1649 2.4101 29.1399 2.4101 29.1274 2.4101C19.3245 2.43507 11.0325 11.0017 11.0325 21.1169V31.7816Z" fill="#1F2336"/>
  <path d="M61.6458 27.8605C61.1963 27.8605 60.7717 27.6107 60.5594 27.1862C60.2597 26.5867 60.5094 25.8624 61.1088 25.5627L65.6294 23.3149C66.2289 23.0152 66.9532 23.265 67.2529 23.8644C67.5526 24.4638 67.3028 25.1881 66.7034 25.4878L62.1828 27.7356C62.008 27.823 61.8331 27.8605 61.6458 27.8605Z" fill="#1F2336"/>
  <path d="M57.2501 21.4666C57.0878 21.4666 56.9254 21.4291 56.7631 21.3667C56.1512 21.0919 55.8764 20.3801 56.1512 19.7682L58.0493 15.4849C58.3241 14.873 59.0359 14.5982 59.6478 14.873C60.2597 15.1477 60.5344 15.8595 60.2597 16.4714L58.3615 20.7548C58.1492 21.1918 57.7121 21.4666 57.2501 21.4666Z" fill="#1F2336"/>
  <path d="M68.4891 36.402C68.4017 36.402 68.3018 36.3896 68.2144 36.3646L63.8936 35.3406C63.2442 35.1907 62.8446 34.5414 62.9945 33.8795C63.1443 33.2301 63.8062 32.8305 64.4556 32.9804L68.7764 34.0044C69.4257 34.1542 69.8253 34.8036 69.6755 35.4655C69.5381 36.0274 69.0386 36.402 68.4891 36.402Z" fill="#1F2336"/>
  <path d="M33.623 66.2232H24.6942C24.3445 66.2232 24.0199 66.0733 23.7826 65.8111C23.5578 65.5488 23.4454 65.1992 23.4954 64.8495L24.7566 55.2463C23.8201 54.1974 23.2831 52.8112 23.2831 51.3626C23.2831 48.1158 25.9305 45.4808 29.1774 45.4808C32.4242 45.4808 35.0591 48.1283 35.0591 51.3626C35.0591 52.7987 34.5346 54.1849 33.5856 55.2463L34.8219 64.837C34.8718 65.1867 34.7594 65.5239 34.5346 65.7861C34.3099 66.0733 33.9727 66.2232 33.623 66.2232ZM26.0804 63.8005H32.2494L31.113 54.9966C31.063 54.6095 31.2129 54.2099 31.5001 53.9476C32.2369 53.2733 32.6365 52.3741 32.6365 51.3876C32.6365 49.477 31.088 47.916 29.1774 47.916C27.2542 47.916 25.7057 49.4645 25.7057 51.3751C25.7057 52.3616 26.1178 53.2858 26.8296 53.9226C27.1293 54.1849 27.2792 54.5845 27.2292 54.9841L26.0804 63.8005Z" fill="#1F2336"/>
</svg>