<svg xmlns="http://www.w3.org/2000/svg" width="27" height="25" viewBox="0 0 16 20" fill="none">
  <path d="M8.00076 8.00183C10.0404 8.00183 11.6939 6.34835 11.6939 4.30868C11.6939 2.26902 10.0404 0.61554 8.00076 0.61554C5.96109 0.61554 4.30762 2.26902 4.30762 4.30868C4.30762 6.34835 5.96109 8.00183 8.00076 8.00183Z" fill="#FF914C"/>
  <path d="M8.00093 8.61734C8.8531 8.61734 9.68614 8.36464 10.3947 7.8912C11.1033 7.41776 11.6555 6.74483 11.9816 5.95753C12.3077 5.17022 12.3931 4.30389 12.2268 3.46809C12.0606 2.63229 11.6502 1.86456 11.0476 1.26198C10.445 0.659404 9.67731 0.249043 8.84151 0.0827918C8.00571 -0.0834591 7.13938 0.00186691 6.35207 0.32798C5.56477 0.654093 4.89184 1.20635 4.4184 1.9149C3.94496 2.62346 3.69226 3.4565 3.69226 4.30867C3.69359 5.45099 4.14797 6.54614 4.95571 7.35389C5.76346 8.16163 6.85861 8.61601 8.00093 8.61734ZM8.00093 1.23105C8.60963 1.23105 9.20465 1.41155 9.71076 1.74972C10.2169 2.0879 10.6113 2.56855 10.8443 3.13092C11.0772 3.69328 11.1382 4.31208 11.0194 4.90908C10.9007 5.50608 10.6075 6.05446 10.1771 6.48488C9.74672 6.91529 9.19834 7.20841 8.60134 7.32716C8.00434 7.44591 7.38554 7.38496 6.82318 7.15202C6.26081 6.91908 5.78016 6.52462 5.44198 6.01851C5.10381 5.51239 4.92331 4.91737 4.92331 4.30867C4.92427 3.49273 5.24882 2.71048 5.82578 2.13352C6.40274 1.55656 7.18499 1.23201 8.00093 1.23105Z" fill="#3CEBFF"/>
  <path d="M15.9726 16.4662C15.6467 14.5959 14.6655 12.9027 13.2047 11.6901C11.744 10.4774 9.89917 9.82454 8.00082 9.84841C6.10247 9.82454 4.25766 10.4774 2.79691 11.6901C1.33616 12.9027 0.354942 14.5959 0.0290656 16.4662C-0.0284298 16.8594 -0.000410301 17.2603 0.111211 17.6416C0.222833 18.023 0.415427 18.3757 0.675846 18.6758C0.95631 18.9984 1.30312 19.2566 1.69257 19.4328C2.08202 19.609 2.50492 19.6991 2.93237 19.6968H13.0693C13.4967 19.6991 13.9196 19.609 14.3091 19.4328C14.6985 19.2566 15.0453 18.9984 15.3258 18.6758C15.5862 18.3757 15.7788 18.023 15.8904 17.6416C16.0021 17.2603 16.0301 16.8594 15.9726 16.4662ZM14.3935 17.8722C14.2285 18.0605 14.0247 18.2111 13.7962 18.3135C13.5677 18.4159 13.3197 18.4679 13.0693 18.4657H2.93237C2.68194 18.4679 2.43399 18.4159 2.20546 18.3135C1.97693 18.2111 1.77319 18.0605 1.60815 17.8722C1.46232 17.7069 1.35442 17.5117 1.29201 17.3002C1.22961 17.0888 1.2142 16.8663 1.24689 16.6483C1.52772 15.0691 2.36157 13.6415 3.59912 12.6211C4.83666 11.6007 6.39705 11.0542 8.00082 11.0795C9.6046 11.0542 11.165 11.6007 12.4025 12.6211C13.6401 13.6415 14.4739 15.0691 14.7548 16.6483C14.7874 16.8663 14.772 17.0888 14.7096 17.3002C14.6472 17.5117 14.5393 17.7069 14.3935 17.8722Z" fill="#3CEBFF"/>
</svg>