<svg xmlns="http://www.w3.org/2000/svg" width="27" height="31" viewBox="0 0 27 31" fill="none">
  <g filter="url(#filter0_dddd_106_2068)">
    <circle cx="15" cy="11" r="10" transform="rotate(-180 15 11)" fill="white"/>
    <path d="M12.6841 5.99352C12.4451 6.28579 12.4883 6.71646 12.7805 6.95548L16.5968 10.0765C16.8359 10.272 16.973 10.5611 16.973 10.8697C16.973 11.1782 16.8359 11.4673 16.5968 11.6628L12.7805 14.7839C12.1018 15.3797 12.9214 16.3908 13.646 15.8422L17.4623 12.7212C18.6235 11.8115 18.6239 9.92781 17.4623 9.01819L13.646 5.89714C13.519 5.79326 13.3659 5.74268 13.2137 5.74268C13.0157 5.74268 12.8192 5.8283 12.6841 5.99352Z" fill="#1F2336"/>
  </g>
  <defs>
    <filter id="filter0_dddd_106_2068" x="0" y="0" width="27" height="31" filterUnits="userSpaceOnUse" color-interpolation-filters="sRGB">
      <feFlood flood-opacity="0" result="BackgroundImageFix"/>
      <feColorMatrix in="SourceAlpha" type="matrix" values="0 0 0 0 0 0 0 0 0 0 0 0 0 0 0 0 0 0 127 0" result="hardAlpha"/>
      <feOffset/>
      <feGaussianBlur stdDeviation="0.5"/>
      <feColorMatrix type="matrix" values="0 0 0 0 0 0 0 0 0 0 0 0 0 0 0 0 0 0 0.1 0"/>
      <feBlend mode="normal" in2="BackgroundImageFix" result="effect1_dropShadow_106_2068"/>
      <feColorMatrix in="SourceAlpha" type="matrix" values="0 0 0 0 0 0 0 0 0 0 0 0 0 0 0 0 0 0 127 0" result="hardAlpha"/>
      <feOffset dx="-1" dy="2"/>
      <feGaussianBlur stdDeviation="1"/>
      <feColorMatrix type="matrix" values="0 0 0 0 0 0 0 0 0 0 0 0 0 0 0 0 0 0 0.09 0"/>
      <feBlend mode="normal" in2="effect1_dropShadow_106_2068" result="effect2_dropShadow_106_2068"/>
      <feColorMatrix in="SourceAlpha" type="matrix" values="0 0 0 0 0 0 0 0 0 0 0 0 0 0 0 0 0 0 127 0" result="hardAlpha"/>
      <feOffset dx="-1" dy="4"/>
      <feGaussianBlur stdDeviation="1.5"/>
      <feColorMatrix type="matrix" values="0 0 0 0 0 0 0 0 0 0 0 0 0 0 0 0 0 0 0.05 0"/>
      <feBlend mode="normal" in2="effect2_dropShadow_106_2068" result="effect3_dropShadow_106_2068"/>
      <feColorMatrix in="SourceAlpha" type="matrix" values="0 0 0 0 0 0 0 0 0 0 0 0 0 0 0 0 0 0 127 0" result="hardAlpha"/>
      <feOffset dx="-2" dy="7"/>
      <feGaussianBlur stdDeviation="1.5"/>
      <feColorMatrix type="matrix" values="0 0 0 0 0 0 0 0 0 0 0 0 0 0 0 0 0 0 0.01 0"/>
      <feBlend mode="normal" in2="effect3_dropShadow_106_2068" result="effect4_dropShadow_106_2068"/>
      <feBlend mode="normal" in="SourceGraphic" in2="effect4_dropShadow_106_2068" result="shape"/>
    </filter>
  </defs>
</svg>