<svg xmlns="http://www.w3.org/2000/svg" width="210" height="202" viewBox="0 0 210 202" fill="none">
  <g style="mix-blend-mode:overlay">
    <path d="M103.93 19.2661C91.7632 20.7594 79.5738 21.1414 67.3264 23.0167C37.5415 27.5545 0.162728 54.92 0.000664738 87.7494C-0.207702 130.627 48.6197 158.467 75.9158 167.218C93.3028 172.786 103.478 189.479 119.036 198.045C130.566 204.389 146.043 202.398 157.677 197.119C183.676 185.323 194.43 156.152 186.455 129.631C175.18 92.1136 211.69 78.9517 196.757 46.6317C182.507 15.7817 150.974 8.66253 120.483 16.2911C114.961 17.6686 109.44 18.5831 103.918 19.2545L103.93 19.2661Z" fill="url(#paint0_linear_62_21)" style="mix-blend-mode:multiply" opacity="0.6"/>
  </g>
  <g style="mix-blend-mode:overlay">
    <path d="M171.545 20.2269C164.391 10.2831 153.741 3.22178 138.322 1.23072C123.261 -0.714043 108.027 5.34018 94.9582 12.0079C63.7842 27.9133 40.4355 59.3304 40.4355 59.3304L66.3309 109.431L115.552 131.97C115.552 131.97 168.408 150.514 182.391 131.622C203.61 102.96 189.256 44.8721 171.533 20.2269H171.545Z" fill="url(#paint1_linear_62_21)" style="mix-blend-mode:multiply" opacity="0.7"/>
  </g>
  <g style="mix-blend-mode:overlay">
    <path d="M168.79 101.027C157.399 90.5624 151.333 75.8146 146.633 61.4025C142.107 47.5114 140.857 31.143 128.992 21.3729C115.934 10.6188 96.5557 8.08371 80.4188 11.9732C57.2322 17.5528 44.5681 34.7779 36.1871 55.8692C31.3252 68.1166 27.5977 80.9775 20.3165 92.0557C14.9105 100.286 7.94178 107.174 4.93203 116.932C0.000672817 132.907 2.4432 149.785 11.7734 163.688C33.0037 195.325 59.7557 192.153 84.6672 186.052C109.197 180.044 121.907 184.872 148.497 181.144C165.687 177.66 180.111 169.765 185.829 147.493C190.599 128.913 182.426 113.541 168.79 101.015V101.027Z" fill="url(#paint2_linear_62_21)" style="mix-blend-mode:multiply" opacity="0.7"/>
  </g>
  <path d="M104.056 172.52C144.903 172.52 178.015 139.408 178.015 98.5613C178.015 57.715 144.903 24.6025 104.056 24.6025C63.2099 24.6025 30.0975 57.715 30.0975 98.5613C30.0975 139.408 63.2099 172.52 104.056 172.52Z" fill="white"/>
  <g style="mix-blend-mode:overlay">
    <path d="M47.0338 4.58784C51.1201 8.23426 51.4674 14.4969 47.8325 18.5716C44.1977 22.6463 37.9235 23.0052 33.8488 19.3703C29.7625 15.7239 29.4152 9.46131 33.05 5.38658C36.6849 1.31184 42.959 0.952989 47.0338 4.58784Z" fill="url(#paint3_linear_62_21)" style="mix-blend-mode:multiply"/>
  </g>
  <g style="mix-blend-mode:overlay">
    <path d="M203.842 135.628C207.243 135.628 210 132.87 210 129.469C210 126.068 207.243 123.311 203.842 123.311C200.44 123.311 197.683 126.068 197.683 129.469C197.683 132.87 200.44 135.628 203.842 135.628Z" fill="url(#paint4_linear_62_21)" style="mix-blend-mode:multiply"/>
  </g>
  <defs>
    <linearGradient id="paint0_linear_62_21" x1="27.3995" y1="153.31" x2="203.419" y2="58.7707" gradientUnits="userSpaceOnUse">
      <stop stop-color="#FBA97B"/>
      <stop offset="1" stop-color="#A97DFB"/>
    </linearGradient>
    <linearGradient id="paint1_linear_62_21" x1="40.4355" y1="70.4896" x2="192.995" y2="70.4896" gradientUnits="userSpaceOnUse">
      <stop stop-color="#FC8BD0"/>
      <stop offset="1" stop-color="#FC8BD0"/>
    </linearGradient>
    <linearGradient id="paint2_linear_62_21" x1="2.4432" y1="100.136" x2="187.195" y2="100.136" gradientUnits="userSpaceOnUse">
      <stop stop-color="#4072D9"/>
      <stop offset="0.91" stop-color="#EA88D0"/>
      <stop offset="1" stop-color="#FC8BD0"/>
    </linearGradient>
    <linearGradient id="paint3_linear_62_21" x1="34.5086" y1="2.38841" x2="52.1851" y2="30.9694" gradientUnits="userSpaceOnUse">
      <stop stop-color="#FBA97B"/>
      <stop offset="1" stop-color="#A97DFB"/>
    </linearGradient>
    <linearGradient id="paint4_linear_62_21" x1="196.734" y1="143.152" x2="216.043" y2="105.993" gradientUnits="userSpaceOnUse">
      <stop stop-color="#4072D9"/>
      <stop offset="0.91" stop-color="#EA88D0"/>
      <stop offset="1" stop-color="#FC8BD0"/>
    </linearGradient>
  </defs>
</svg>