<svg xmlns="http://www.w3.org/2000/svg" width="45" height="48" viewBox="0 0 45 48" fill="none">
<path fill-rule="evenodd" clip-rule="evenodd" d="M0.706088 7.09448H43.4368V13.3108C43.4368 19.8789 38.0629 25.2527 31.4948 25.2527H12.6479C6.07987 25.2527 0.705994 19.8788 0.705994 13.3108V7.09448H0.706088Z" fill="#FF914C"/>
<path fill-rule="evenodd" clip-rule="evenodd" d="M3.6236 10.012V13.3108C3.6236 18.2685 7.69026 22.3352 12.648 22.3352H31.4949C36.4526 22.3352 40.5192 18.2685 40.5192 13.3108V10.012H3.6236Z" fill="white"/>
<path fill-rule="evenodd" clip-rule="evenodd" d="M7.87929 1.67871H36.2636C36.5729 1.67871 36.8252 1.93104 36.8252 2.24032V10.242C36.8252 16.6592 33.3487 23.4593 28.1863 27.3216C25.0947 29.6347 24.124 33.7414 25.8533 37.1935L27.5882 40.6571H16.5548L18.2896 37.1935C20.0191 33.7409 19.0485 29.6349 15.9566 27.3216C10.7941 23.4592 7.31769 16.6592 7.31769 10.242V2.24032C7.31778 1.93104 7.57002 1.67871 7.87929 1.67871Z" fill="#FF914C"/>
<path fill-rule="evenodd" clip-rule="evenodd" d="M26.4043 20.959L22.0711 18.3882L17.7383 20.9589L18.8443 16.0435L15.0605 12.7171L20.0772 12.2499L22.0714 7.62341L24.0661 12.2502L29.0823 12.7172L25.2984 16.0438L26.4043 20.959Z" fill="white"/>
<path fill-rule="evenodd" clip-rule="evenodd" d="M6.82391 0.705566H37.3189C38.0354 0.705566 38.6217 1.29183 38.6217 2.00835V2.00845C38.6217 2.72497 38.0354 3.31114 37.3189 3.31114H6.82391C6.10729 3.31114 5.52112 2.72488 5.52112 2.00845V2.00835C5.52121 1.29183 6.10738 0.705566 6.82391 0.705566Z" fill="#FF914C"/>
<path fill-rule="evenodd" clip-rule="evenodd" d="M16.3654 36.1945H27.7776C29.1076 36.1945 30.1958 37.2827 30.1958 38.6127V43.632H13.9473V38.6127C13.9473 37.2827 15.0355 36.1945 16.3654 36.1945Z" fill="#A09F9F"/>
<path fill-rule="evenodd" clip-rule="evenodd" d="M10.8618 39.5658H33.2813C34.5914 39.5658 35.6632 40.6376 35.6632 41.9477V46.9293C35.6632 47.1299 35.4991 47.294 35.2986 47.294H8.84447C8.64391 47.294 8.47986 47.1299 8.47986 46.9293V41.9477C8.47986 40.6376 9.55168 39.5658 10.8618 39.5658Z" fill="#A09F9F"/>
<path fill-rule="evenodd" clip-rule="evenodd" d="M15.5197 42.0117H28.6234C28.8239 42.0117 28.9881 42.1759 28.9881 42.3764V44.4836C28.9881 44.6842 28.824 44.8484 28.6234 44.8484H15.5197C15.3192 44.8484 15.155 44.6842 15.155 44.4836V42.3764C15.155 42.1759 15.3192 42.0117 15.5197 42.0117Z" fill="white"/>
<path fill-rule="evenodd" clip-rule="evenodd" d="M15.8608 42.718H28.2821V44.1421H15.8608V42.718ZM15.1549 45.5541H28.9879C29.3778 45.5541 29.6938 45.2386 29.6938 44.8484V42.0123C29.6938 41.6216 29.3778 41.3065 28.9879 41.3065H15.1549C14.7652 41.3065 14.4491 41.6217 14.4491 42.0123V44.8484C14.4491 45.2386 14.7651 45.5541 15.1549 45.5541ZM24.8323 15.5135C24.6384 15.6835 24.5529 15.9463 24.6097 16.1984L25.3562 19.5162L22.4314 17.7814C22.3203 17.7148 22.1958 17.6829 22.0711 17.6829C21.9466 17.6829 21.8221 17.7149 21.7111 17.7814L18.7864 19.5162L19.5329 16.1984C19.5896 15.9463 19.5041 15.6835 19.3103 15.5135L16.7563 13.2678L20.1426 12.9522C20.3995 12.9287 20.6232 12.7657 20.7253 12.5288L22.0714 9.40591L23.4177 12.5297C23.52 12.7668 23.7433 12.9288 24.0005 12.9531L27.3863 13.2679L24.8323 15.5135ZM29.1479 12.0137L24.5485 11.5858L22.7197 7.34387C22.6082 7.08504 22.3533 6.91733 22.0715 6.91733C21.7895 6.91733 21.5347 7.08514 21.4233 7.34387L19.5947 11.5858L14.9951 12.0137C14.7146 12.0404 14.4762 12.2303 14.3893 12.4989C14.3021 12.7666 14.3827 13.0604 14.5945 13.2469L18.0639 16.2974L17.0498 20.8038C16.988 21.0786 17.0954 21.3645 17.3236 21.5301C17.5515 21.6956 17.8563 21.7098 18.0985 21.566L22.0712 19.2093L26.0443 21.566C26.1557 21.6317 26.2802 21.6645 26.4045 21.6645C26.5504 21.6645 26.6962 21.6197 26.8195 21.5301C27.0476 21.3645 27.155 21.0787 27.0933 20.8038L26.0793 16.2974L29.5487 13.2469C29.7604 13.0604 29.841 12.7666 29.7539 12.4989C29.6666 12.2304 29.4285 12.0404 29.1479 12.0137ZM42.7308 13.3108C42.7308 19.2919 38.0324 24.1966 32.1321 24.5277C32.5805 23.9924 33.0083 23.4313 33.4117 22.848C35.5295 22.4187 37.4645 21.281 38.887 19.6168C40.3949 17.8541 41.2253 15.6146 41.2253 13.3107V10.0121C41.2253 9.62144 40.9092 9.30586 40.5194 9.30586H37.531V7.80025H42.7307V13.3108H42.7308ZM27.7633 26.7558C32.7614 23.0164 36.1194 16.38 36.1194 10.2418V4.01688H8.02331V10.2418C8.02331 16.3801 11.3815 23.0164 16.3794 26.7558C19.1234 28.8093 20.3655 32.2233 19.6401 35.4883H24.5029C23.7774 32.2233 25.0196 28.8093 27.7633 26.7558ZM29.4898 38.6128V38.8601H14.6529V38.6128C14.6529 37.6686 15.4211 36.8998 16.3654 36.8998H27.7775C28.7217 36.8998 29.4898 37.6686 29.4898 38.6128ZM34.9576 41.9483C34.9576 41.0241 34.2055 40.2721 33.2813 40.2721H10.8615C9.93749 40.2721 9.18549 41.0241 9.18549 41.9483V46.5884H34.9576V41.9483ZM1.41178 13.3108V7.80016H6.61153V9.30586H3.62337C3.23353 9.30586 2.91748 9.62144 2.91748 10.0121V13.3107C2.91748 15.6145 3.74808 17.8541 5.25595 19.6168C6.67855 21.281 8.61353 22.4187 10.7311 22.848C11.1346 23.4312 11.5624 23.9924 12.0109 24.5277C6.11036 24.1966 1.41178 19.292 1.41178 13.3108ZM6.61935 10.718C6.69794 13.8231 7.54067 17.0418 9.07179 20.0591C9.24073 20.3924 9.41843 20.7191 9.60121 21.0419C6.50396 19.7994 4.32935 16.7311 4.32935 13.3108V10.718H6.61935ZM6.22687 2.0082C6.22687 1.67888 6.49483 1.41159 6.82396 1.41159H37.3188C37.6481 1.41159 37.9157 1.67888 37.9157 2.0082C37.9157 2.33762 37.6481 2.60482 37.3188 2.60482H6.82396C6.49483 2.60482 6.22687 2.33752 6.22687 2.0082ZM37.5235 10.718C37.4449 13.8231 36.6022 17.0418 35.0712 20.0591C34.9022 20.3924 34.7246 20.7191 34.5416 21.0419C37.6387 19.7994 39.8135 16.7311 39.8135 13.3108V10.718H37.5235ZM43.4371 6.38857H37.5311V4.0053C38.5393 3.89876 39.3275 3.04426 39.3275 2.0082C39.3275 0.900242 38.4263 0 37.3188 0H6.82396C5.71628 0 4.81529 0.900242 4.81529 2.0082C4.81529 3.04426 5.60362 3.89876 6.61153 4.0053V6.38857H0.705888C0.31605 6.38857 0 6.70462 0 7.09436V13.3108C0 20.2841 5.67383 25.9584 12.6479 25.9584H13.3176C14.0183 26.6606 14.7583 27.3061 15.5338 27.8859C17.9136 29.6668 18.9428 32.6703 18.1864 35.4882H16.3653C14.6426 35.4882 13.241 36.8905 13.241 38.6128V38.8601H10.8615C9.15885 38.8601 7.77371 40.246 7.77371 41.9483V47.2942C7.77371 47.684 8.08966 48 8.4795 48H35.6632C36.0532 48 36.3691 47.684 36.3691 47.2942V41.9483C36.3691 40.2459 34.984 38.8601 33.2812 38.8601H30.9017V38.6128C30.9017 36.8905 29.5001 35.4882 27.7775 35.4882H25.9563C25.2001 32.6703 26.2292 29.6669 28.6092 27.8859C29.3844 27.3062 30.1245 26.6607 30.8254 25.9584H31.495C38.469 25.9584 44.1428 20.284 44.1428 13.3108V7.09446C44.1428 6.70471 43.8268 6.38857 43.4371 6.38857Z" fill="black"/>
</svg>