<svg xmlns="http://www.w3.org/2000/svg" width="47" height="51" viewBox="0 0 47 51" fill="none">
  <g filter="url(#filter0_dddd_63_707)">
    <circle cx="25" cy="21" r="20" transform="rotate(-180 25 21)" fill="#fff"/>
    <path d="M20.3682 10.987C19.8902 11.5716 19.9765 12.4329 20.561 12.911L28.1936 19.153C28.6717 19.5441 28.946 20.1223 28.946 20.7393C28.946 21.3563 28.6717 21.9346 28.1936 22.3257L20.561 28.5677C19.2036 29.7595 20.8427 31.7816 22.292 30.6844L29.9246 24.4424C32.247 22.623 32.2478 18.8556 29.9246 17.0364L22.292 10.7943C22.038 10.5865 21.7318 10.4854 21.4274 10.4854C21.0313 10.4854 20.6384 10.6566 20.3682 10.987Z" fill="#1F2336"/>
  </g>
  <defs>
    <filter id="filter0_dddd_63_707" x="0" y="0" width="47" height="51" filterUnits="userSpaceOnUse" color-interpolation-filters="sRGB">
      <feFlood flood-opacity="0" result="BackgroundImageFix"/>
      <feColorMatrix in="SourceAlpha" type="matrix" values="0 0 0 0 0 0 0 0 0 0 0 0 0 0 0 0 0 0 127 0" result="hardAlpha"/>
      <feOffset/>
      <feGaussianBlur stdDeviation="0.5"/>
      <feColorMatrix type="matrix" values="0 0 0 0 0 0 0 0 0 0 0 0 0 0 0 0 0 0 0.1 0"/>
      <feBlend mode="normal" in2="BackgroundImageFix" result="effect1_dropShadow_63_707"/>
      <feColorMatrix in="SourceAlpha" type="matrix" values="0 0 0 0 0 0 0 0 0 0 0 0 0 0 0 0 0 0 127 0" result="hardAlpha"/>
      <feOffset dx="-1" dy="2"/>
      <feGaussianBlur stdDeviation="1"/>
      <feColorMatrix type="matrix" values="0 0 0 0 0 0 0 0 0 0 0 0 0 0 0 0 0 0 0.09 0"/>
      <feBlend mode="normal" in2="effect1_dropShadow_63_707" result="effect2_dropShadow_63_707"/>
      <feColorMatrix in="SourceAlpha" type="matrix" values="0 0 0 0 0 0 0 0 0 0 0 0 0 0 0 0 0 0 127 0" result="hardAlpha"/>
      <feOffset dx="-1" dy="4"/>
      <feGaussianBlur stdDeviation="1.5"/>
      <feColorMatrix type="matrix" values="0 0 0 0 0 0 0 0 0 0 0 0 0 0 0 0 0 0 0.05 0"/>
      <feBlend mode="normal" in2="effect2_dropShadow_63_707" result="effect3_dropShadow_63_707"/>
      <feColorMatrix in="SourceAlpha" type="matrix" values="0 0 0 0 0 0 0 0 0 0 0 0 0 0 0 0 0 0 127 0" result="hardAlpha"/>
      <feOffset dx="-2" dy="7"/>
      <feGaussianBlur stdDeviation="1.5"/>
      <feColorMatrix type="matrix" values="0 0 0 0 0 0 0 0 0 0 0 0 0 0 0 0 0 0 0.01 0"/>
      <feBlend mode="normal" in2="effect3_dropShadow_63_707" result="effect4_dropShadow_63_707"/>
      <feBlend mode="normal" in="SourceGraphic" in2="effect4_dropShadow_63_707" result="shape"/>
    </filter>
  </defs>
</svg>