<svg xmlns="http://www.w3.org/2000/svg" width="38" height="35" viewBox="0 0 38 35" fill="none">
  <path d="M33.6903 9.03123C33.6903 11.9749 31.3088 14.3612 28.3708 14.3612C25.4328 14.3612 23.0513 11.9749 23.0513 9.03123C23.0513 6.08779 25.4328 3.70129 28.3708 3.70129C31.3088 3.70129 33.6903 6.08779 33.6903 9.03123Z" fill="#FF914C"/>
  <path d="M30.8152 26.2283V15.4141C30.8152 15.142 30.8051 14.8684 30.787 14.5963C32.9284 13.6594 34.4291 11.5181 34.4291 9.03127C34.4291 5.68416 31.7114 2.96107 28.3708 2.96107C26.7474 2.96107 25.2721 3.60534 24.1834 4.65068C23.4905 4.30281 22.7641 4.02376 22.0169 3.81643V3.09062C22.0169 1.38656 20.6331 0 18.9323 0H18.8954C17.1946 0 15.8108 1.38656 15.8108 3.09062V3.75513C10.6292 5.09079 6.7888 9.81173 6.7888 15.4144V26.3559C5.45632 27.173 4.61793 28.6342 4.61793 30.1983C4.61793 30.6072 4.94867 30.9386 5.35675 30.9386H15.2599V31.2749C15.2599 33.2936 16.8991 34.936 18.9139 34.936C20.9286 34.936 22.5678 33.2936 22.5678 31.2749V30.9386H32.471C32.879 30.9386 33.2098 30.6072 33.2098 30.1983C33.2098 28.546 32.2658 27.0091 30.8152 26.2283ZM28.3708 4.44161C30.8966 4.44161 32.9515 6.50048 32.9515 9.03127C32.9515 11.5621 30.8966 13.6209 28.3708 13.6209C25.8449 13.6209 23.7901 11.5621 23.7901 9.03127C23.7901 6.50048 25.8449 4.44161 28.3708 4.44161ZM17.2884 3.37747V3.09062C17.2884 2.20288 18.0094 1.48054 18.8954 1.48054H18.9323C19.8183 1.48054 20.5393 2.20288 20.5393 3.09062V3.37747H17.2884ZM21.0902 31.2749C21.0902 32.4772 20.1139 33.4555 18.9139 33.4555C17.7138 33.4555 16.7375 32.4772 16.7375 31.2749V30.9386H21.0905V31.2749H21.0902ZM21.829 29.458H6.19052C6.40091 28.6507 6.94695 27.9454 7.70453 27.536H15.5398C15.9479 27.536 16.2786 27.2046 16.2786 26.7957C16.2786 26.3868 15.9479 26.0554 15.5398 26.0554H8.26644V15.4144C8.26644 9.5937 12.9926 4.8583 18.8019 4.85801C20.3309 4.85801 21.8481 5.19344 23.2256 5.83164C22.6475 6.76131 22.3124 7.85754 22.3124 9.03127C22.3124 12.3784 25.0302 15.1015 28.3708 15.1015C28.6972 15.1015 29.0173 15.0749 29.3295 15.0248C29.3344 15.1547 29.3376 15.2845 29.3376 15.4141V26.6988C29.3376 27.0022 29.5223 27.2748 29.8034 27.3867C30.7189 27.7514 31.3959 28.5382 31.6366 29.458H21.829Z" fill="#F9F9F9"/>
  <path d="M37.0889 18.2291H34.3327C33.9246 18.2291 33.5939 18.5605 33.5939 18.9694C33.5939 19.3783 33.9246 19.7097 34.3327 19.7097H37.0889C37.497 19.7097 37.8277 19.3783 37.8277 18.9694C37.8277 18.5605 37.497 18.2291 37.0889 18.2291Z" fill="#F9F9F9"/>
  <path d="M32.3728 15.4617C32.0845 15.7509 32.0845 16.2196 32.3728 16.5088C32.5171 16.6534 32.7062 16.7257 32.8952 16.7257C33.0845 16.7257 33.2736 16.6534 33.4179 16.5088L35.3316 14.5911C35.6202 14.3022 35.6202 13.8334 35.3316 13.5443C35.0433 13.2551 34.5755 13.2551 34.2868 13.5443L32.3728 15.4617Z" fill="#F9F9F9"/>
  <path d="M33.4684 21.4652C33.1798 21.1763 32.7119 21.1763 32.4236 21.4654C32.135 21.7546 32.1353 22.2234 32.4239 22.5122L34.2857 24.3765C34.43 24.5211 34.6187 24.5934 34.8078 24.5934C34.9971 24.5934 35.1861 24.5208 35.3304 24.3762C35.6187 24.087 35.6187 23.6183 35.3301 23.3294L33.4684 21.4652Z" fill="#F9F9F9"/>
  <path d="M4.2338 18.9598C4.2338 18.5509 3.90306 18.2195 3.49498 18.2195H0.738823C0.330738 18.2195 0 18.5509 0 18.9598C0 19.3686 0.330738 19.7 0.738823 19.7H3.49498C3.90306 19.7 4.2338 19.3686 4.2338 18.9598Z" fill="#F9F9F9"/>
  <path d="M4.40985 16.4996C4.55415 16.6442 4.74319 16.7162 4.93222 16.7162C5.12125 16.7162 5.31058 16.6442 5.45459 16.4996C5.74319 16.2104 5.74319 15.7417 5.45459 15.4525L3.54087 13.5348C3.25226 13.2459 2.78444 13.2459 2.49584 13.5348C2.20752 13.8239 2.20752 14.2927 2.49584 14.5818L4.40985 16.4996Z" fill="#F9F9F9"/>
  <path d="M5.40408 21.4563C5.11576 21.1668 4.64794 21.1668 4.35934 21.456L2.49756 23.3202C2.20896 23.6091 2.20896 24.0779 2.49727 24.367C2.64158 24.5116 2.83061 24.5839 3.01993 24.5839C3.20897 24.5839 3.398 24.5116 3.54201 24.3673L5.40379 22.503C5.69239 22.2139 5.69268 21.7451 5.40408 21.4563Z" fill="#F9F9F9"/>
  <path d="M27.9122 9.0682L28.1015 8.8785V10.9712C28.1015 11.3801 28.4322 11.7115 28.8403 11.7115C29.2484 11.7115 29.5792 11.3801 29.5792 10.9712V7.09145C29.5792 6.79187 29.3991 6.52208 29.1229 6.40728C28.847 6.29277 28.5292 6.3561 28.3177 6.56777L26.8672 8.02112C26.5788 8.31029 26.5788 8.77903 26.8672 9.0682C27.1558 9.35707 27.6236 9.35707 27.9122 9.0682Z" fill="#F9F9F9"/>
  <path d="M18.6922 26.0552C18.498 26.0552 18.3072 26.1344 18.1698 26.2721C18.0325 26.4106 17.9534 26.6008 17.9534 26.7954C17.9534 26.9909 18.0325 27.1812 18.1698 27.3188C18.3072 27.4573 18.498 27.5357 18.6922 27.5357C18.8864 27.5357 19.0772 27.4573 19.2146 27.3188C19.352 27.1812 19.431 26.9909 19.431 26.7954C19.431 26.6008 19.352 26.41 19.2146 26.2721C19.0772 26.1344 18.8864 26.0552 18.6922 26.0552Z" fill="#F9F9F9"/>
</svg>