<svg xmlns="http://www.w3.org/2000/svg" width="30" height="35" viewBox="0 0 30 35" fill="none">
  <path d="M26.141 26.4828V15.9052C26.141 15.639 26.1311 15.3714 26.1133 15.1053C28.2079 14.1889 29.6758 12.0945 29.6758 9.66203C29.6758 6.38815 27.0175 3.72465 23.75 3.72465C22.1621 3.72465 20.7191 4.35482 19.6543 5.37728C18.9765 5.03703 18.266 4.76409 17.5352 4.56129V3.85136C17.5352 2.18459 16.1816 0.828369 14.5181 0.828369H14.4819C12.8184 0.828369 11.4648 2.18459 11.4648 3.85136V4.50133C6.39665 5.80777 2.64025 10.4254 2.64025 15.9054V26.6075C1.33693 27.4068 0.51688 28.836 0.51688 30.3659C0.51688 30.7659 0.840382 31.09 1.23954 31.09H10.926V31.4189C10.926 33.3934 12.5293 35 14.5 35C16.4706 35 18.074 33.3934 18.074 31.4189V31.09H27.7605C28.1596 31.09 28.4831 30.7659 28.4831 30.3659C28.4831 28.7498 27.5597 27.2465 26.141 26.4828ZM23.75 5.17279C26.2206 5.17279 28.2305 7.18661 28.2305 9.66203C28.2305 12.1374 26.2206 14.1513 23.75 14.1513C21.2794 14.1513 19.2695 12.1374 19.2695 9.66203C19.2695 7.18661 21.2794 5.17279 23.75 5.17279ZM12.9102 4.13194V3.85136C12.9102 2.98304 13.6153 2.27651 14.4819 2.27651H14.5181C15.3847 2.27651 16.0898 2.98304 16.0898 3.85136V4.13194H12.9102ZM16.6287 31.4189C16.6287 32.595 15.6737 33.5518 14.5 33.5518C13.3262 33.5518 12.3713 32.595 12.3713 31.4189V31.09H16.629V31.4189H16.6287ZM17.3514 29.6418H2.05506C2.26085 28.8522 2.79494 28.1623 3.53595 27.7618H11.1998C11.5989 27.7618 11.9224 27.4377 11.9224 27.0377C11.9224 26.6378 11.5989 26.3137 11.1998 26.3137H4.08556V15.9054C4.08556 10.2122 8.7083 5.58036 14.3905 5.58008C15.886 5.58008 17.37 5.90818 18.7174 6.5324C18.1519 7.44173 17.8242 8.51398 17.8242 9.66203C17.8242 12.9359 20.4825 15.5994 23.75 15.5994C24.0693 15.5994 24.3823 15.5734 24.6878 15.5245C24.6926 15.6514 24.6957 15.7784 24.6957 15.9052V26.943C24.6957 27.2397 24.8763 27.5064 25.1513 27.6159C26.0467 27.9725 26.7089 28.7421 26.9444 29.6418H17.3514Z" fill="#F9F9F9"/>
  <path d="M14.2832 26.3134C14.0932 26.3134 13.9066 26.3909 13.7723 26.5255C13.6379 26.661 13.5605 26.8471 13.5605 27.0374C13.5605 27.2286 13.6379 27.4147 13.7723 27.5494C13.9066 27.6848 14.0932 27.7615 14.2832 27.7615C14.4732 27.7615 14.6598 27.6848 14.7941 27.5494C14.9285 27.4147 15.0059 27.2286 15.0059 27.0374C15.0059 26.8471 14.9285 26.6604 14.7941 26.5255C14.6598 26.3909 14.4732 26.3134 14.2832 26.3134Z" fill="#F9F9F9"/>
</svg>