<svg xmlns="http://www.w3.org/2000/svg" width="80" height="61" viewBox="0 0 80 61" fill="none">
  <path d="M24.9548 48.1591C22.8532 49.0757 20.4065 48.115 19.4899 46.0135L18.786 44.3994C17.1478 40.6434 18.0477 36.2521 21.0253 33.472C23.2649 31.3808 23.8291 28.0181 22.3971 25.2945C20.8292 22.3121 17.2556 20.9247 14.085 22.0673C10.7305 23.2741 8.8524 26.8958 9.80672 30.3088C9.892 30.6139 10.0002 30.9175 10.1284 31.2112C11.0449 33.3129 10.0842 35.7595 7.98274 36.6761C5.88125 37.5927 3.43442 36.632 2.51783 34.5305C2.23689 33.8863 1.99897 33.2181 1.81063 32.5445C-0.308635 24.9646 3.84602 16.9303 11.2702 14.2561C18.3178 11.7165 26.2609 14.8009 29.7465 21.4307C32.9144 27.4565 31.6584 34.9038 26.6919 39.5411C26.2811 39.9246 26.1626 40.5431 26.3968 41.0804L27.1007 42.6945C28.017 44.7959 27.0565 47.2425 24.9548 48.1591Z" fill="#686868"/>
  <path d="M29.8931 59.4815C27.7915 60.3981 25.3448 59.4374 24.4282 57.3359L24.4145 57.3044C23.4979 55.2028 24.4586 52.7561 26.5601 51.8395C28.6617 50.9229 31.1084 51.8836 32.025 53.9851L32.0387 54.0166C32.9553 56.1183 31.9946 58.565 29.8931 59.4815Z" fill="#686868"/>
  <path d="M5.17445 31.0777C5.36201 31.7515 5.60101 32.4187 5.88196 33.063C6.53522 34.5609 7.96537 35.4799 9.4939 35.5507C9.09586 36.023 8.58698 36.4123 7.98252 36.6759C5.88227 37.5919 3.43451 36.6324 2.51776 34.5303C2.23682 33.8859 1.99968 33.2179 1.81212 32.5442C-0.308862 24.9631 3.84735 16.9294 11.2706 14.2551C11.5366 14.1596 11.804 14.0723 12.0728 13.9935C6.29029 17.4114 3.31336 24.4195 5.17445 31.0777Z" fill="#686868"/>
  <path d="M24.3891 32.0045C21.412 34.7847 20.5112 39.1772 22.1493 42.9329L22.8531 44.5466C23.5064 46.0444 24.9384 46.9625 26.4669 47.0335C26.0689 47.5057 25.56 47.895 24.9555 48.1587C22.8534 49.0756 20.4075 48.1152 19.4908 46.0131L18.787 44.3994C17.149 40.6436 18.0478 36.2519 21.0268 33.471C23.2658 31.3792 23.8292 28.0184 22.3971 25.2948C21.0511 22.7328 18.2256 21.3477 15.4464 21.734C16.0315 21.2549 16.7045 20.8686 17.4493 20.6003C20.6202 19.4571 24.1931 20.8443 25.7611 23.8274C27.1934 26.551 26.6281 29.9127 24.3891 32.0045Z" fill="#686868"/>
  <path d="M31.4053 58.3562C31.0072 58.8285 30.4983 59.2178 29.8939 59.4814C27.7918 60.3983 25.3459 59.4379 24.4291 57.3358L24.4151 57.3035C23.4991 55.2033 24.4586 52.7555 26.5607 51.8388C27.1652 51.5751 27.7968 51.4671 28.4135 51.4967C27.4263 52.667 27.1249 54.3413 27.7774 55.8372L27.7914 55.8695C28.4447 57.367 29.8767 58.2853 31.4053 58.3562Z" fill="#686868"/>
  <path d="M58.0704 47.7548C55.8557 47.1614 54.5415 44.885 55.1349 42.6703L55.5906 40.9693C56.6513 37.0113 60.0923 34.1386 64.1536 33.8211C67.2085 33.5821 69.7459 31.3044 70.3242 28.2821C70.9573 24.9726 69.0281 21.6602 65.8366 20.5769C62.4614 19.4293 58.7352 21.0905 57.3537 24.354C57.2302 24.6457 57.1256 24.9506 57.0426 25.2601C56.4492 27.4748 54.1728 28.789 51.9581 28.1956C49.7434 27.6022 48.4293 25.3258 49.0227 23.1111C49.2046 22.4321 49.435 21.7614 49.7077 21.1173C52.776 13.8693 61.0331 10.1772 68.505 12.7145C75.5987 15.1221 79.8868 22.4854 78.4793 29.8423C77.1999 36.5287 71.5753 41.5688 64.8011 42.0987C64.2408 42.1425 63.7624 42.5523 63.6107 43.1184L63.155 44.8193C62.5615 47.034 60.2849 48.3483 58.0704 47.7548Z" fill="#FF914C"/>
  <path d="M54.8721 59.6866C52.6574 59.0932 51.3432 56.8168 51.9366 54.6021L51.9455 54.5689C52.5389 52.3542 54.8153 51.0401 57.03 51.6335C59.2447 52.2268 60.5588 54.5033 59.9654 56.7179L59.9566 56.7512C59.3632 58.9658 57.0867 60.28 54.8721 59.6866Z" fill="#FF914C"/>
  <path d="M53.2511 22.0685C52.9776 22.7122 52.7486 23.3829 52.5667 24.0619C52.1437 25.6402 52.689 27.2504 53.84 28.2587C53.2344 28.3798 52.5938 28.367 51.9567 28.1963C49.7435 27.6032 48.4277 25.3273 49.0213 23.112C49.2032 22.433 49.4343 21.7629 49.7078 21.1192C52.7753 13.8692 61.0333 10.1786 68.5047 12.7151C68.7723 12.8061 69.0358 12.9045 69.295 13.0105C62.643 12.0782 55.9466 15.7021 53.2511 22.0685Z" fill="#FF914C"/>
  <path d="M67.6975 34.7705C63.6366 35.0884 60.1939 37.9615 59.1335 41.9192L58.6777 43.6197C58.2548 45.198 58.8022 46.8088 59.9531 47.8171C59.3474 47.9382 58.7069 47.9254 58.0698 47.7547C55.8545 47.1612 54.5409 44.8855 55.1344 42.6704L55.5901 40.9699C56.6506 37.0121 60.0912 34.1386 64.1542 33.8211C67.2089 33.5814 69.7446 31.3046 70.3226 28.2823C70.8673 25.44 69.5215 22.5956 67.1076 21.1653C67.8637 21.1553 68.6308 21.2728 69.3806 21.5274C72.5725 22.6102 74.5015 25.9223 73.8679 29.2324C73.29 32.2544 70.7522 34.5305 67.6975 34.7705Z" fill="#FF914C"/>
  <path d="M56.7562 59.7484C56.1505 59.8696 55.5101 59.8568 54.873 59.6861C52.6577 59.0925 51.344 56.8171 51.9376 54.6017L51.9468 54.5678C52.5398 52.3545 54.8158 51.0388 57.0311 51.6323C57.668 51.803 58.2293 52.1122 58.6931 52.5199C57.1917 52.8196 55.9123 53.9409 55.4899 55.5171L55.4807 55.5511C55.0579 57.1295 55.6052 58.7403 56.7562 59.7484Z" fill="#FF914C"/>
  <path d="M41.8632 42.2399C39.289 42.2399 37.2022 40.153 37.2022 37.5788V35.6017C37.2022 31.001 40.0993 26.8858 44.4113 25.3612C47.6546 24.2143 49.7447 21.0068 49.4934 17.5611C49.2184 13.7881 46.1635 10.7563 42.3876 10.509C38.3937 10.2452 34.8353 13.1295 34.2856 17.0703C34.2365 17.4225 34.2116 17.7836 34.2116 18.1434C34.2116 20.7176 32.1247 22.8045 29.5505 22.8045C26.9763 22.8045 24.8895 20.7176 24.8895 18.1434C24.8895 17.3544 24.9445 16.5598 25.053 15.7822C26.2742 7.03024 34.1559 0.626758 42.9965 1.20689C51.3893 1.75647 58.1792 8.49594 58.7907 16.8834C59.3464 24.5065 54.7111 31.6069 47.5185 34.1501C46.9236 34.3604 46.524 34.9438 46.524 35.6017V37.5788C46.5243 40.153 44.4375 42.2399 41.8632 42.2399Z" fill="#3CEBFF"/>
  <path d="M41.8633 56.1075C39.2891 56.1075 37.2023 54.0206 37.2023 51.4464V51.4077C37.2023 48.8335 39.2891 46.7467 41.8633 46.7467C44.4375 46.7467 46.5244 48.8335 46.5244 51.4077V51.4464C46.5244 54.0206 44.4375 56.1075 41.8633 56.1075Z" fill="#3CEBFF"/>
  <path d="M29.1739 15.7816C29.0645 16.5591 29.011 17.3532 29.011 18.1424C29.011 19.977 30.0702 21.5648 31.6115 22.3237C30.9899 22.631 30.2915 22.8033 29.5512 22.8033C26.9786 22.8033 24.8903 20.7172 24.8903 18.1424C24.8903 17.3532 24.9461 16.5593 25.0556 15.7816C26.2756 7.02782 34.1586 0.625588 42.9985 1.20526C43.3151 1.22615 43.6295 1.25639 43.9414 1.296C36.4564 2.21804 30.2472 8.09408 29.1739 15.7816Z" fill="#3CEBFF"/>
  <path d="M48.532 25.3594C44.2203 26.8843 41.3218 31.0004 41.3218 35.6008V37.5775C41.3218 39.412 42.3834 40.9998 43.9247 41.7588C43.3031 42.0661 42.6046 42.2383 41.8644 42.2383C39.2896 42.2383 37.2035 40.1523 37.2035 37.5775V35.6008C37.2035 31.0004 40.0996 26.8843 44.4136 25.3594C47.6567 24.2116 49.7451 21.0058 49.4936 17.5602C49.2585 14.3195 46.9723 11.6258 43.9387 10.776C44.7559 10.5455 45.6219 10.45 46.5091 10.5083C50.2853 10.7551 53.3397 13.7863 53.6144 17.5602C53.8658 21.0058 51.775 24.2116 48.532 25.3594Z" fill="#3CEBFF"/>
  <path d="M43.9246 55.6275C43.303 55.9348 42.6045 56.1071 41.8643 56.1071C39.2894 56.1071 37.2034 54.021 37.2034 51.4462V51.4066C37.2034 48.8341 39.2894 46.7457 41.8643 46.7457C42.6047 46.7457 43.303 46.918 43.9246 47.2253C42.3834 47.9866 41.3217 49.5744 41.3217 51.4066V51.4462C41.3219 53.2808 42.3834 54.8686 43.9246 55.6275Z" fill="#3CEBFF"/>
  <path d="M33.097 53.5178C32.5287 52.215 31.4874 51.2116 30.1644 50.6921C28.8415 50.1726 27.3953 50.1996 26.0928 50.7677C24.7902 51.3359 23.7866 52.3773 23.2671 53.7002C22.7478 55.0231 22.7746 56.4692 23.3421 57.7707L23.3563 57.8034C23.9246 59.1062 24.9659 60.1096 26.2891 60.6291C26.9195 60.8767 27.5777 61 28.235 61C28.9573 61 29.6787 60.8508 30.3607 60.5535C31.6633 59.9854 32.6669 58.9439 33.1862 57.621C33.7057 56.2981 33.6787 54.8521 33.1112 53.5506L33.097 53.5178ZM31.0094 56.7662C30.7183 57.5077 30.1558 58.0914 29.4258 58.4098C28.6956 58.7281 27.8848 58.7431 27.1437 58.452C26.4022 58.1609 25.8184 57.5984 25.5005 56.8695L25.4863 56.8368C25.1678 56.1067 25.1527 55.2963 25.4441 54.5548C25.7352 53.8133 26.2977 53.2295 27.0277 52.9112C27.4099 52.7445 27.8142 52.6609 28.2191 52.6609C28.5875 52.6609 28.9564 52.7302 29.3097 52.8689C30.0512 53.16 30.6349 53.7225 30.9528 54.4514L30.967 54.4841C31.2855 55.2144 31.3005 56.0248 31.0094 56.7662Z" fill="white"/>
  <path d="M76.7696 17.4266C76.3893 16.9046 75.6578 16.7898 75.1358 17.1701C74.6138 17.5504 74.4991 18.2819 74.8793 18.8037C77.1548 21.9265 78.0479 25.8699 77.3296 29.6227C76.1483 35.7942 70.9579 40.4451 64.7077 40.9328C63.657 41.0148 62.7619 41.7705 62.4794 42.8158L62.0243 44.5163C61.8179 45.2862 61.3243 45.9295 60.6344 46.328C59.9448 46.7262 59.1411 46.8317 58.3716 46.6253C57.6021 46.4195 56.959 45.9262 56.5608 45.2363C56.1625 44.5464 56.0569 43.7429 56.2634 42.973L56.7186 41.2709C57.6511 37.7918 60.6749 35.2666 64.2428 34.9872C67.8212 34.7078 70.7936 32.0416 71.471 28.5031C72.2127 24.6228 69.9507 20.7393 66.2103 19.4699C64.1023 18.7532 61.815 18.9816 59.9071 19.9771C60.015 18.9331 60.0356 17.8703 59.9575 16.7972C59.8811 15.7501 59.7136 14.7275 59.465 13.7364C62.2902 12.8489 65.3282 12.8714 68.129 13.8218C69.2255 14.1939 70.2732 14.7046 71.2429 15.3393C71.4405 15.4685 71.6625 15.5304 71.8823 15.5304C72.2635 15.5304 72.6374 15.3441 72.8617 15.0014C73.2155 14.461 73.0641 13.7364 72.5237 13.3826C71.3895 12.64 70.1636 12.0427 68.8806 11.6073C65.6042 10.4952 62.051 10.4702 58.7498 11.5104C56.2319 5.13768 50.1923 0.505166 43.0735 0.0389992C34.1143 -0.549088 26.0749 5.57625 24.1547 14.1911C20.0877 11.9835 15.2439 11.5812 10.8741 13.1548C2.87617 16.0363 -1.59935 24.6917 0.684715 32.857C0.883967 33.576 1.14012 34.2963 1.44617 34.9984C2.01446 36.3012 3.05577 37.3046 4.37866 37.8239C5.70139 38.3433 7.14713 38.3163 8.45006 37.748C9.75268 37.1797 10.7561 36.1381 11.2754 34.8149C11.7948 33.4917 11.7678 32.046 11.1998 30.7444C11.0949 30.5039 11.0049 30.2511 10.9329 29.9958C10.1423 27.1668 11.7006 24.1677 14.4814 23.1676C17.1063 22.2214 20.0645 23.3698 21.3627 25.8388C22.5494 28.0971 22.0821 30.8846 20.2263 32.6177C16.8869 35.7366 15.8777 40.6596 17.7152 44.867L18.4187 46.4809C19.2905 48.4798 21.2508 49.6747 23.3049 49.6746C24.0132 49.6746 24.7329 49.5324 25.4226 49.2321C26.7251 48.6638 27.7286 47.6222 28.248 46.299C28.7673 44.9758 28.7403 43.53 28.1725 42.229L27.4691 40.6131C27.4307 40.5252 27.4489 40.4343 27.4904 40.3958C27.9767 39.941 28.4377 39.4535 28.8605 38.9468C29.2742 38.4508 29.2076 37.7136 28.7115 37.2998C28.2157 36.8861 27.4784 36.9527 27.0646 37.4488C26.7035 37.8818 26.3094 38.2985 25.8948 38.6861C25.1218 39.4063 24.893 40.5562 25.3252 41.5472L26.0288 43.1635C26.3473 43.8928 26.3624 44.7029 26.0712 45.4444C25.7801 46.1861 25.2176 46.77 24.4884 47.0882C22.9811 47.7446 21.2198 47.0528 20.5625 45.5462L19.8588 43.9318C18.4171 40.6303 19.2064 36.7703 21.8228 34.3267C24.4463 31.8766 25.1084 27.939 23.433 24.7505C21.5946 21.2538 17.405 19.6274 13.6894 20.9671C9.76219 22.3796 7.56216 26.6219 8.68159 30.6277C8.78308 30.9875 8.90906 31.3411 9.05639 31.6793C9.37491 32.4088 9.39003 33.2189 9.0988 33.9604C8.80771 34.702 8.24535 35.2859 7.51523 35.6043C6.78511 35.9228 5.97485 35.9379 5.23351 35.6468C4.49216 35.3557 3.90844 34.7934 3.59023 34.0636C3.32799 33.4621 3.10878 32.8458 2.93791 32.2295C0.981566 25.2354 4.81598 17.8232 11.6669 15.355C15.6761 13.9113 20.1541 14.4124 23.7817 16.6791C23.7427 17.166 23.7207 17.6551 23.7207 18.1423C23.7207 21.3572 26.3362 23.9727 29.5511 23.9727L29.5674 23.9722C30.5657 26.908 30.5632 30.104 29.5403 33.0636C29.3294 33.674 29.6533 34.3397 30.2636 34.5506C30.3902 34.5943 30.5189 34.615 30.6455 34.615C31.1303 34.615 31.5835 34.3113 31.7508 33.8274C32.9126 30.4657 32.9455 26.8416 31.8707 23.4898C33.9343 22.5912 35.3813 20.5329 35.3813 18.1422C35.3813 17.8357 35.4025 17.5292 35.4439 17.2307C35.9099 13.8915 38.9272 11.4512 42.3116 11.6746C45.5085 11.884 48.0947 14.4506 48.3274 17.6448C48.5406 20.5664 46.7701 23.2856 44.0219 24.2574C39.2437 25.9467 36.0333 30.5051 36.0333 35.6004V37.5774C36.0333 40.7923 38.6486 43.4078 41.8635 43.4078C45.0783 43.4078 47.6938 40.7923 47.6938 37.5774V35.6004C47.6938 35.4395 47.7822 35.2959 47.9088 35.2511C53.3936 33.3118 57.4851 28.893 59.1653 23.5617C60.6294 21.6849 63.1894 20.9125 65.4585 21.684C68.1007 22.5806 69.6982 25.3233 69.1745 28.0633C68.6946 30.5693 66.592 32.4577 64.0607 32.6553C59.5067 33.0118 55.6486 36.2307 54.46 40.6657L54.0047 42.3674C53.6366 43.7401 53.8251 45.1741 54.5357 46.4051C55.2467 47.6365 56.3945 48.5169 57.7669 48.8839C58.2255 49.007 58.691 49.0679 59.1536 49.0679C60.075 49.0679 60.9847 48.8261 61.8044 48.3529C63.0351 47.6423 63.9155 46.4948 64.2838 45.1211L64.7383 43.4228C64.7646 43.3253 64.8362 43.2681 64.8899 43.2639C72.188 42.6945 78.248 37.2658 79.6269 30.062C80.4662 25.6762 79.4248 21.0705 76.7696 17.4266ZM47.1291 33.0464C46.068 33.4215 45.3551 34.448 45.3551 35.6005V37.5776C45.3551 39.5029 43.7886 41.0693 41.8633 41.0693C39.938 41.0693 38.3717 39.5029 38.3717 37.5776V35.6005C38.3717 31.4944 40.9555 27.8221 44.8013 26.4624C48.5403 25.1403 50.9495 21.4445 50.6598 17.4749C50.3427 13.123 46.8193 9.62629 42.465 9.34114C42.2693 9.32819 42.075 9.3218 41.8814 9.3218C37.5216 9.3218 33.7353 12.5541 33.1279 16.9075C33.0713 17.3126 33.0426 17.7279 33.0426 18.1423C33.0426 20.0677 31.4762 21.6341 29.5509 21.6341C27.6254 21.6341 26.0592 20.0677 26.0592 18.1423C26.0592 17.4075 26.1105 16.6674 26.2116 15.9426C27.349 7.79296 34.6876 1.8332 42.9207 2.37264C50.7344 2.88433 57.0558 9.15872 57.6251 16.9673C58.1422 24.0662 53.8264 30.6783 47.1291 33.0464Z" fill="white"/>
  <path d="M57.3324 50.5038C55.9596 50.136 54.5259 50.3246 53.295 51.0353C52.0641 51.7459 51.1837 52.8932 50.8167 54.2632L50.807 54.2992C50.0477 57.1332 51.7354 60.0565 54.5692 60.8157C55.0289 60.9389 55.4903 60.9977 55.945 60.9977C58.2939 60.9977 60.4498 59.4274 61.0865 57.0512L61.0948 57.0203C61.4627 55.6475 61.2739 54.2136 60.5635 52.9827C59.8525 51.7521 58.7052 50.8717 57.3324 50.5038ZM58.8352 56.4175L58.8269 56.4484C58.4013 58.0368 56.7627 58.9826 55.1745 58.5571C53.5861 58.1315 52.6402 56.493 53.065 54.9076L53.0747 54.8716C53.2808 54.1022 53.7743 53.4592 54.4642 53.0608C55.1539 52.6625 55.9573 52.5568 56.727 52.7629C57.4966 52.9692 58.1397 53.4626 58.5377 54.1524C58.9361 54.8421 59.0419 55.6458 58.8352 56.4175Z" fill="white"/>
  <path d="M41.8635 45.5774C38.6487 45.5774 36.0333 48.1929 36.0333 51.4078V51.4464C36.0333 54.6613 38.6487 57.2768 41.8635 57.2768C45.0784 57.2768 47.6939 54.6613 47.6939 51.4464V51.4078C47.6939 48.1928 45.0784 45.5774 41.8635 45.5774ZM45.3553 51.4463C45.3553 53.3716 43.7888 54.938 41.8635 54.938C39.9382 54.938 38.372 53.3716 38.372 51.4463V51.4076C38.372 49.4823 39.9384 47.9159 41.8635 47.9159C43.7888 47.9159 45.3553 49.4823 45.3553 51.4076V51.4463Z" fill="white"/>
</svg>