<svg xmlns="http://www.w3.org/2000/svg" width="28" height="27" viewBox="0 0 28 27" fill="none">
  <path d="M18.6623 21.1883C18.2499 21.1883 17.8444 21.0046 17.5891 20.6609L8.27668 8.10621C7.86113 7.54588 8.00404 6.7735 8.59625 6.38033C9.18847 5.98715 10.0048 6.12237 10.4204 6.68269L19.7328 19.2374C20.1484 19.7977 20.0054 20.5701 19.4132 20.9632C19.1844 21.1149 18.9217 21.1883 18.6623 21.1883Z" fill="#A09F9F"/>
  <path d="M9.34736 21.1892C9.08843 21.1892 8.82687 21.1169 8.59853 20.9657C8.00579 20.574 7.86076 19.8016 8.27473 19.2403L17.5872 6.6243C18.0012 6.06347 18.8175 5.92626 19.4108 6.31794C20.0035 6.70962 20.1485 7.482 19.7346 8.04332L10.4221 20.6593C10.1679 21.0046 9.7608 21.1892 9.34736 21.1892Z" fill="#A09F9F"/>
  <path d="M14.0042 26.4153C12.217 26.4153 10.4298 26.334 8.65474 26.1718C4.48552 25.7906 1.16375 22.6163 0.756638 18.6236C0.419662 15.3181 0.419662 11.9661 0.756638 8.66054C1.16375 4.66792 4.48552 1.49358 8.65474 1.11238C12.2043 0.788061 15.8035 0.788061 19.3531 1.11238C23.5223 1.49358 26.8441 4.66842 27.2512 8.66054C27.5882 11.9661 27.5882 15.3181 27.2512 18.6236C26.8441 22.6163 23.5223 25.7911 19.3531 26.1718C17.5785 26.334 15.7914 26.4153 14.0042 26.4153ZM14.0042 3.34719C12.3008 3.34719 10.598 3.42453 8.90682 3.5792C5.98214 3.84664 3.65073 6.08395 3.36385 8.89904C3.04322 12.0464 3.04322 15.2387 3.36385 18.3861C3.65073 21.2012 5.98214 23.4385 8.90682 23.706C12.2892 24.0153 15.7191 24.0153 19.1015 23.706C22.0262 23.4385 24.3576 21.2012 24.6445 18.3861C24.9651 15.2387 24.9651 12.0464 24.6445 8.89904C24.3576 6.08395 22.0262 3.84664 19.1015 3.5792C17.4103 3.42453 15.707 3.34719 14.0042 3.34719Z" fill="#A09F9F"/>
</svg>