<svg xmlns="http://www.w3.org/2000/svg" width="28" height="25" viewBox="0 0 28 25" fill="none">
  <path d="M19.2145 8.43883H17.3399V5.90718C17.3399 2.64992 14.3967 0 10.7789 0C7.16106 0 4.21782 2.64992 4.21782 5.90718V8.43883H2.34323C1.05127 8.43883 0 9.38533 0 10.5485V11.8228C0 12.0558 0.209626 12.2447 0.468647 12.2447C0.727668 12.2447 0.937293 12.0558 0.937293 11.8228V10.5485C0.937293 9.85052 1.56795 9.28271 2.34323 9.28271H19.2145C19.9898 9.28271 20.6204 9.85052 20.6204 10.5485V12.2363C20.6204 12.4693 20.8301 12.6582 21.0891 12.6582C21.3481 12.6582 21.5577 12.4693 21.5577 12.2363V10.5485C21.5577 9.38533 20.5065 8.43883 19.2145 8.43883ZM5.15511 5.90718C5.15511 3.11532 7.67774 0.843883 10.7789 0.843883C13.88 0.843883 16.4026 3.11532 16.4026 5.90718V8.43883H14.528V5.90718C14.528 4.04595 12.8461 2.53165 10.7789 2.53165C8.71162 2.53165 7.0297 4.04595 7.0297 5.90718V8.43883H5.15511V5.90718ZM13.5908 8.43883H7.96699V5.90718C7.96699 4.51115 9.22831 3.37553 10.7789 3.37553C12.3294 3.37553 13.5908 4.51115 13.5908 5.90718V8.43883Z" fill="black"/>
  <path d="M0.478435 14.4506C0.742866 14.4506 0.95687 14.2617 0.95687 14.0287V13.2518C0.95687 13.0188 0.742866 12.8298 0.478435 12.8298C0.214004 12.8298 0 13.0188 0 13.2518V14.0287C0 14.2617 0.214004 14.4506 0.478435 14.4506Z" fill="black"/>
  <path d="M21.0891 21.941C20.8301 21.941 20.6204 22.1299 20.6204 22.3629C20.6204 23.061 19.9898 23.6288 19.2145 23.6288H2.34323C1.56795 23.6288 0.937293 23.061 0.937293 22.3629V15.6329C0.937293 15.3999 0.727668 15.2109 0.468647 15.2109C0.209626 15.2109 0 15.3999 0 15.6329V22.3629C0 23.5262 1.05127 24.4727 2.34323 24.4727H19.2145C20.5065 24.4727 21.5577 23.5262 21.5577 22.3629C21.5577 22.1299 21.3481 21.941 21.0891 21.941Z" fill="black"/>
  <path d="M25.3069 13.5022H6.09236C5.05848 13.5022 4.21777 14.2593 4.21777 15.19V19.4094C4.21777 20.34 5.05848 21.0972 6.09236 21.0972H15.5353C15.7943 21.0972 16.004 20.9082 16.004 20.6752C16.004 20.4422 15.7943 20.2533 15.5353 20.2533H6.09236C5.57568 20.2533 5.15507 19.8748 5.15507 19.4094V15.19C5.15507 14.7246 5.57568 14.3461 6.09236 14.3461H25.3069C25.8236 14.3461 26.2442 14.7246 26.2442 15.19V19.4094C26.2442 19.8748 25.8236 20.2533 25.3069 20.2533H18.1847C17.9257 20.2533 17.7161 20.4422 17.7161 20.6752C17.7161 20.9082 17.9257 21.0972 18.1847 21.0972H25.3069C26.3408 21.0972 27.1815 20.34 27.1815 19.4094V15.19C27.1815 14.2593 26.3408 13.5022 25.3069 13.5022Z" fill="#FF914C"/>
  <path d="M10.2933 16.4559C10.1633 16.2538 9.87635 16.1848 9.65299 16.3014L9.13855 16.5689V16.034C9.13855 15.801 8.92893 15.6121 8.66991 15.6121C8.41089 15.6121 8.20126 15.801 8.20126 16.034V16.5689L7.68683 16.3014C7.46258 16.1848 7.1761 16.2538 7.04656 16.4559C6.91703 16.6576 6.99393 16.9157 7.21818 17.0324L7.73257 17.2998L7.21818 17.5672C6.99393 17.6838 6.91703 17.942 7.04656 18.1437C7.1335 18.279 7.29096 18.3546 7.45297 18.3546C7.5326 18.3546 7.61316 18.3365 7.68683 18.2982L8.20126 18.0307V18.5656C8.20126 18.7986 8.41089 18.9875 8.66991 18.9875C8.92893 18.9875 9.13855 18.7986 9.13855 18.5656V18.0307L9.65299 18.2982C9.72666 18.3365 9.80722 18.3546 9.88684 18.3546C10.0489 18.3546 10.2063 18.279 10.2933 18.1437C10.4228 17.942 10.3459 17.6838 10.1216 17.5672L9.60725 17.2998L10.1216 17.0324C10.3459 16.9157 10.4228 16.6576 10.2933 16.4559Z" fill="#FF914C"/>
  <path d="M14.9798 16.4559C14.8498 16.2538 14.5629 16.1848 14.3395 16.3014L13.8251 16.5689V16.034C13.8251 15.801 13.6155 15.6121 13.3564 15.6121C13.0974 15.6121 12.8878 15.801 12.8878 16.034V16.5689L12.3734 16.3014C12.1491 16.1848 11.8626 16.2538 11.7331 16.4559C11.6036 16.6576 11.6805 16.9157 11.9047 17.0324L12.4191 17.2998L11.9047 17.5672C11.6805 17.6838 11.6036 17.942 11.7331 18.1437C11.82 18.279 11.9775 18.3546 12.1395 18.3546C12.2191 18.3546 12.2997 18.3365 12.3734 18.2982L12.8878 18.0307V18.5656C12.8878 18.7986 13.0974 18.9875 13.3564 18.9875C13.6155 18.9875 13.8251 18.7986 13.8251 18.5656V18.0307L14.3395 18.2982C14.4132 18.3365 14.4937 18.3546 14.5734 18.3546C14.7354 18.3546 14.8928 18.279 14.9798 18.1437C15.1093 17.942 15.0324 17.6838 14.8082 17.5672L14.2938 17.2998L14.8082 17.0324C15.0324 16.9157 15.1093 16.6576 14.9798 16.4559Z" fill="#FF914C"/>
  <path d="M18.5116 18.5656V18.0307L19.026 18.2982C19.0997 18.3365 19.1803 18.3546 19.2599 18.3546C19.4219 18.3546 19.5793 18.279 19.6663 18.1437C19.7958 17.942 19.7189 17.6838 19.4947 17.5672L18.9803 17.2998L19.4947 17.0324C19.7189 16.9157 19.7958 16.6576 19.6663 16.4559C19.5368 16.2538 19.2494 16.1848 19.026 16.3014L18.5116 16.5689V16.034C18.5116 15.801 18.302 15.6121 18.043 15.6121C17.7839 15.6121 17.5743 15.801 17.5743 16.034V16.5689L17.0599 16.3014C16.8356 16.1848 16.5491 16.2538 16.4196 16.4559C16.2901 16.6576 16.367 16.9157 16.5912 17.0324L17.1056 17.2998L16.5912 17.5672C16.367 17.6838 16.2901 17.942 16.4196 18.1437C16.5065 18.279 16.664 18.3546 16.826 18.3546C16.9056 18.3546 16.9862 18.3365 17.0599 18.2982L17.5743 18.0307V18.5656C17.5743 18.7986 17.7839 18.9875 18.043 18.9875C18.302 18.9875 18.5116 18.7986 18.5116 18.5656Z" fill="#FF914C"/>
  <path d="M21.1059 18.1437C21.1928 18.279 21.3503 18.3546 21.5123 18.3546C21.5919 18.3546 21.6725 18.3365 21.7462 18.2982L22.2606 18.0307V18.5656C22.2606 18.7986 22.4702 18.9875 22.7292 18.9875C22.9883 18.9875 23.1979 18.7986 23.1979 18.5656V18.0307L23.7123 18.2982C23.786 18.3365 23.8665 18.3546 23.9462 18.3546C24.1082 18.3546 24.2656 18.279 24.3526 18.1437C24.4821 17.942 24.4052 17.6838 24.181 17.5672L23.6666 17.2998L24.181 17.0324C24.4052 16.9157 24.4821 16.6576 24.3526 16.4559C24.2226 16.2538 23.9357 16.1848 23.7123 16.3014L23.1979 16.5689V16.034C23.1979 15.801 22.9883 15.6121 22.7292 15.6121C22.4702 15.6121 22.2606 15.801 22.2606 16.034V16.5689L21.7462 16.3014C21.5219 16.1848 21.2354 16.2538 21.1059 16.4559C20.9764 16.6576 21.0533 16.9157 21.2775 17.0324L21.7919 17.2998L21.2775 17.5672C21.0533 17.6838 20.9764 17.942 21.1059 18.1437Z" fill="#FF914C"/>
</svg>