<svg xmlns="http://www.w3.org/2000/svg" width="26" height="26" viewBox="0 0 26 26" fill="none">
  <g clipPath="url(#clip0_491_1591)">
    <path d="M25.4587 4.875V23.2917C25.4587 23.8663 25.2304 24.4174 24.8241 24.8237C24.4177 25.2301 23.8666 25.4583 23.292 25.4583H2.70866C2.13402 25.4583 1.58292 25.2301 1.17659 24.8237C0.770265 24.4174 0.541992 23.8663 0.541992 23.2917V4.875H25.4587Z" fill="#D9EEF7"/>
    <path d="M25.4587 2.70841V4.87508H0.541992V2.70841C0.541992 2.13378 0.770265 1.58268 1.17659 1.17635C1.58292 0.770021 2.13402 0.541748 2.70866 0.541748H23.292C23.8666 0.541748 24.4177 0.770021 24.8241 1.17635C25.2304 1.58268 25.4587 2.13378 25.4587 2.70841Z" fill="#AAC4DA"/>
    <path d="M2.16699 4.87524H23.8337" stroke="#4C5B66" stroke-width="2" stroke-linejoin="round"/>
    <path d="M2.70898 2.7085H3.79232" stroke="#4C5B66" stroke-width="2" stroke-linejoin="round"/>
    <path d="M4.875 2.7085H5.95833" stroke="#4C5B66" stroke-width="2" stroke-linejoin="round"/>
    <path d="M22.209 2.7085H23.2923" stroke="#4C5B66" stroke-width="2" stroke-linejoin="round"/>
    <path d="M16.2503 14.0834C17.7461 14.0834 18.9587 12.8709 18.9587 11.3751C18.9587 9.87931 17.7461 8.66675 16.2503 8.66675C14.7546 8.66675 13.542 9.87931 13.542 11.3751C13.542 12.8709 14.7546 14.0834 16.2503 14.0834Z" fill="#FFE451"/>
    <path d="M25.4587 20.5833V23.2917C25.4587 23.8663 25.2304 24.4174 24.8241 24.8237C24.4177 25.2301 23.8666 25.4583 23.292 25.4583H2.70866C2.13402 25.4583 1.58292 25.2301 1.17659 24.8237C0.770265 24.4174 0.541992 23.8663 0.541992 23.2917L2.70866 21.125L9.20866 14.625L13.0003 18.4167H16.792L18.417 20.0417L21.667 16.7917L23.292 18.4167L25.4587 20.5833Z" fill="#31E8BB"/>
    <path d="M0.541992 23.2917C0.541992 23.8664 0.770265 24.4175 1.17659 24.8238C1.58292 25.2301 2.13402 25.4584 2.70866 25.4584H23.292C23.8666 25.4584 24.4177 25.2301 24.8241 24.8238C25.2304 24.4175 25.4587 23.8664 25.4587 23.2917V2.70841C25.4587 2.13378 25.2304 1.58268 24.8241 1.17635C24.4177 0.770021 23.8666 0.541748 23.292 0.541748H2.70866C2.13402 0.541748 1.58292 0.770021 1.17659 1.17635C0.770265 1.58268 0.541992 2.13378 0.541992 2.70841V23.2917Z" stroke="#4C5B66" stroke-width="2" stroke-linejoin="round"/>
    <path d="M2.70898 21.125L9.20898 14.625L13.0007 18.4167H16.7923L18.4173 20.0417L21.6673 16.7917L23.2923 18.4167" stroke="#4C5B66" stroke-width="2" stroke-linejoin="round"/>
    <path d="M16.2503 14.0834C17.7461 14.0834 18.9587 12.8709 18.9587 11.3751C18.9587 9.87931 17.7461 8.66675 16.2503 8.66675C14.7546 8.66675 13.542 9.87931 13.542 11.3751C13.542 12.8709 14.7546 14.0834 16.2503 14.0834Z" stroke="#4C5B66" stroke-width="2" stroke-linejoin="round"/>
    <path d="M4.87565 7.04175H2.70898V9.20841" stroke="#4C5B66" stroke-width="2" stroke-linejoin="round"/>
  </g>
  <defs>
    <clipPath id="clip0_491_1591">
      <rect width="26" height="26" fill="white"/>
    </clipPath>
  </defs>
</svg>