<svg xmlns="http://www.w3.org/2000/svg" width="26" height="29" viewBox="0 0 26 29" fill="none">
  <path fill-rule="evenodd" clip-rule="evenodd" d="M8.88892 6.19969C8.88879 5.39707 9.15301 4.61245 9.64817 3.94502C10.1433 3.2776 10.8472 2.75735 11.6707 2.45007C12.4943 2.14279 13.4005 2.06227 14.2749 2.21869C15.1492 2.37511 15.9525 2.76145 16.583 3.32886C17.2135 3.89627 17.6429 4.61926 17.8171 5.40642C17.9912 6.19358 17.9022 7.00955 17.5612 7.75116C17.2203 8.49276 16.6428 9.1267 15.9017 9.5728C15.1606 10.0189 14.2893 10.2572 13.3978 10.2574C12.2027 10.2563 11.0569 9.82846 10.2117 9.06779C9.3664 8.30712 8.89071 7.27568 8.88892 6.19969Z" fill="#FF914C"/>
  <path fill-rule="evenodd" clip-rule="evenodd" d="M13.3971 2.25295C14.264 2.25333 15.1113 2.48513 15.8318 2.91903C16.5524 3.35293 17.1139 3.96945 17.4454 4.69064C17.7768 5.41183 17.8633 6.20531 17.6939 6.97075C17.5245 7.7362 17.1068 8.43923 16.4937 8.99097C15.8805 9.54272 15.0995 9.91839 14.2492 10.0705C13.3989 10.2226 12.5177 10.1443 11.7168 9.84551C10.916 9.54672 10.2315 9.04085 9.74999 8.39185C9.26845 7.74285 9.01145 6.97988 9.01149 6.19939C9.0127 5.1527 9.47521 4.14922 10.2975 3.40929C11.1197 2.66936 12.2345 2.25348 13.3971 2.25295ZM13.3971 11.9222C14.6542 11.922 15.8829 11.5861 16.928 10.9572C17.9731 10.3282 18.7876 9.4344 19.2684 8.3887C19.7493 7.343 19.875 6.1924 19.6296 5.08239C19.3843 3.97237 18.7788 2.95279 17.8898 2.15257C17.0009 1.35235 15.8683 0.807427 14.6354 0.586697C13.4025 0.365968 12.1246 0.479349 10.9632 0.912503C9.80185 1.34566 8.80922 2.07913 8.11085 3.02018C7.41247 3.96124 7.0397 5.0676 7.03968 6.19939C7.04125 7.71692 7.71158 9.17188 8.90352 10.2448C10.0955 11.3178 11.7116 11.9211 13.3971 11.9222ZM2.86927 19.9463C2.87061 18.5278 3.49697 17.1678 4.61088 16.1646C5.7248 15.1614 7.23526 14.5972 8.81077 14.5956H17.9805C19.5562 14.5971 21.067 15.1613 22.1814 16.1644C23.2957 17.1675 23.9227 18.5276 23.9247 19.9463V26.4782C23.924 26.6479 23.8486 26.8104 23.7151 26.9301C23.5816 27.0498 23.4008 27.1171 23.2124 27.117H20.2169V21.0123C20.2179 20.8951 20.1932 20.7789 20.1441 20.6704C20.095 20.5619 20.0226 20.4632 19.9309 20.3801C19.8393 20.2969 19.7302 20.2309 19.6101 20.1858C19.49 20.1408 19.3611 20.1176 19.231 20.1176C19.1009 20.1176 18.972 20.1408 18.8519 20.1858C18.7318 20.2309 18.6227 20.2969 18.5311 20.3801C18.4394 20.4632 18.367 20.5619 18.3179 20.6704C18.2688 20.7789 18.2441 20.8951 18.2451 21.0123V27.117H8.54614V21.0123C8.54614 20.7769 8.44227 20.5511 8.25738 20.3846C8.07249 20.2182 7.82173 20.1247 7.56026 20.1247C7.29879 20.1247 7.04803 20.2182 6.86314 20.3846C6.67826 20.5511 6.57439 20.7769 6.57439 21.0123V27.117H3.57886C3.48565 27.117 3.39336 27.1005 3.30726 27.0684C3.22115 27.0362 3.14292 26.9891 3.07703 26.9298C3.01114 26.8704 2.95888 26.8 2.92323 26.7224C2.88758 26.6449 2.86925 26.5618 2.86927 26.4779V19.9463ZM3.57886 28.8931H23.2125C23.924 28.8926 24.6061 28.638 25.1094 28.1852C25.6126 27.7324 25.8958 27.1184 25.8969 26.4778V19.9463C25.8945 18.0567 25.0597 16.2451 23.5756 14.9089C22.0914 13.5728 20.0792 12.8213 17.9805 12.8193H8.81077C4.44551 12.8193 0.897461 16.0162 0.897461 19.9461V26.478C0.897853 27.1182 1.18045 27.7322 1.68319 28.185C2.18594 28.6378 2.86773 28.8925 3.57886 28.8931Z" fill="black"/>
</svg>