<svg xmlns="http://www.w3.org/2000/svg" width="21" height="23" viewBox="0 0 21 23" fill="none">
  <path d="M0.316864 18.4385C0.428191 19.3468 0.91356 20.2481 1.68307 20.9761C2.45258 21.7042 3.40655 22.1639 4.36564 22.2692H4.37356C6.33183 22.4671 8.29984 22.5664 10.2692 22.5667C12.2388 22.5667 14.207 22.4677 16.1654 22.2701H16.1738C17.1333 22.1648 18.0859 21.7055 18.8559 20.977C19.6259 20.2485 20.1108 19.3463 20.2221 18.4393V18.4318C20.4965 16.0035 20.6041 12.0942 20.4965 8.47151C20.4965 7.81836 20.4499 7.28817 20.4471 7.26569C20.4346 7.12574 20.3851 6.991 20.3031 6.87389C18.4545 4.22626 16.0627 1.9569 13.2695 0.200461C13.1393 0.117329 12.988 0.0684994 12.8312 0.0589888C12.2512 0.0281382 11.6485 0.0175608 11.5935 0.0149165C9.18296 -0.0394028 6.77122 0.0546697 4.37356 0.296538H4.36564C3.40561 0.404516 2.45304 0.863749 1.68307 1.59182C0.913094 2.3199 0.428191 3.2225 0.316864 4.12951V4.137C-0.105621 7.87785 -0.105621 14.6905 0.316864 18.431V18.4385ZM18.1171 6.83643C17.2391 6.81615 16.3573 6.76194 15.4872 6.67424H15.4816C14.9851 6.62003 14.4885 6.37896 14.0842 5.99641C13.6799 5.61386 13.4255 5.14449 13.3678 4.67424C13.2746 3.8567 13.2192 3.02726 13.1973 2.19738C15.0737 3.50169 16.7322 5.06552 18.1171 6.83643ZM2.07574 4.32078C2.21548 3.21897 3.39863 2.09557 4.56547 1.96512C6.84112 1.73572 9.12992 1.64401 11.4179 1.69055C11.4268 2.74828 11.4897 3.80866 11.6075 4.85229V4.8686C11.7109 5.71214 12.1455 6.53365 12.8307 7.18195C13.5159 7.83026 14.3842 8.23969 15.2757 8.33929H15.2939C16.4343 8.45427 17.58 8.51458 18.7269 8.51999C18.8321 12.0727 18.7269 15.8893 18.4623 18.2489C18.3225 19.3534 17.1394 20.4746 15.9721 20.6046C12.1802 20.9871 8.356 20.9871 4.56407 20.6046C3.39676 20.4724 2.21129 19.353 2.07388 18.2485C1.67189 14.6667 1.67189 7.90077 2.07574 4.32078Z" fill="black"/>
  <path d="M7.48224 19.2071L7.49994 19.2111C9.3238 19.5989 11.2159 19.5989 13.0398 19.2111L13.0575 19.2071C13.6728 19.0599 14.2103 18.6262 14.4954 18.0458C14.746 17.5363 14.7586 16.9881 14.5317 16.5473C13.8694 15.2446 12.2959 13.9242 10.2743 13.9114H10.2654C8.24476 13.9237 6.67174 15.2432 6.0089 16.546C5.78112 16.9898 5.79417 17.5363 6.0443 18.0445C6.32938 18.6262 6.86878 19.0603 7.48224 19.2071ZM7.18226 17.0855V17.0828C7.65273 16.1573 8.8191 15.1569 10.2682 15.1463C11.7178 15.1573 12.8842 16.1573 13.356 17.0855C13.4101 17.1908 13.3928 17.3592 13.3095 17.5262C13.193 17.7633 12.9708 17.9519 12.7421 18.011C11.1119 18.3561 9.42127 18.3561 7.79107 18.011C7.56236 17.9532 7.34017 17.7646 7.22372 17.5262C7.14547 17.3592 7.12823 17.1899 7.18226 17.0855Z" fill="#FF914C"/>
  <path d="M10.2692 13.3909C10.7609 13.391 11.2415 13.2531 11.6503 12.9948C12.0591 12.7364 12.3777 12.3692 12.5659 11.9395C12.7541 11.5098 12.8034 11.0369 12.7075 10.5807C12.6117 10.1245 12.375 9.70539 12.0274 9.37645C11.6798 9.04752 11.2369 8.8235 10.7548 8.73272C10.2726 8.64194 9.77285 8.68849 9.31865 8.86647C8.86445 9.04445 8.47624 9.34588 8.2031 9.73262C7.92997 10.1194 7.78418 10.5741 7.78418 11.0392C7.78492 11.6626 8.04696 12.2603 8.51283 12.7012C8.9787 13.142 9.61035 13.3901 10.2692 13.3909ZM10.2692 9.92197C10.5028 9.92197 10.7311 9.98749 10.9253 10.1103C11.1195 10.233 11.2708 10.4075 11.3602 10.6117C11.4496 10.8158 11.4729 11.0404 11.4274 11.2572C11.3818 11.4739 11.2694 11.673 11.1042 11.8292C10.9391 11.9854 10.7287 12.0919 10.4996 12.135C10.2706 12.1781 10.0331 12.1559 9.81737 12.0714C9.6016 11.9868 9.41719 11.8436 9.28744 11.6599C9.15769 11.4762 9.08843 11.2602 9.08843 11.0392C9.0888 10.743 9.21333 10.459 9.43469 10.2496C9.65606 10.0401 9.95619 9.92232 10.2692 9.92197Z" fill="#FF914C"/>
</svg>