<svg xmlns="http://www.w3.org/2000/svg" width="22" height="21" viewBox="0 0 22 21" fill="none">
  <path d="M20.721 17.8723C20.099 18.593 19.3595 19.2151 18.5303 19.7153C17.3058 20.3886 15.8803 20.6597 14.4759 20.4864C13.0716 20.313 11.7673 19.705 10.7664 18.7569L2.33796 10.7823C1.13591 9.64396 0.460693 8.10063 0.460693 6.49147C0.460693 4.88232 1.13591 3.33899 2.33796 2.20063C3.40584 1.18591 3.20876 1.45477 3.27293 1.36371C3.62407 1.14716 4.04303 1.05099 4.46001 1.09123C4.87699 1.13147 5.26681 1.30569 5.56451 1.58486L9.16687 4.95856C9.33732 5.11966 9.47254 5.31096 9.5648 5.52153C9.65706 5.7321 9.70455 5.95781 9.70455 6.18576C9.70455 6.4137 9.65706 6.63942 9.5648 6.84999C9.47254 7.06056 9.33732 7.25186 9.16687 7.41295L8.19524 8.33226C7.8524 8.65743 7.65986 9.09799 7.65986 9.55729C7.65986 10.0166 7.8524 10.4571 8.19524 10.7823L10.7893 13.2367C11.133 13.5611 11.5986 13.7433 12.0841 13.7433C12.5695 13.7433 13.0351 13.5611 13.3788 13.2367L14.3504 12.3174C14.5207 12.1561 14.7229 12.0282 14.9454 11.9409C15.168 11.8536 15.4065 11.8087 15.6475 11.8087C15.8884 11.8087 16.1269 11.8536 16.3495 11.9409C16.5721 12.0282 16.7742 12.1561 16.9445 12.3174L20.5102 15.6911C20.8051 15.9763 20.9871 16.3489 21.0255 16.7462C21.0639 17.1435 20.9564 17.5412 20.721 17.8723Z" fill="#FF914C"/>
  <path d="M20.7215 17.8721C19.4882 18.8152 17.9294 19.2927 16.346 19.2126C14.7625 19.1325 13.2664 18.5005 12.1464 17.4385L3.71337 9.48122C2.59087 8.42147 1.92289 7.00598 1.83825 5.50777C1.75362 4.00957 2.25834 2.53477 3.25505 1.36786C3.60619 1.15131 4.02516 1.05514 4.44214 1.09538C4.85912 1.13562 5.24894 1.30984 5.54664 1.58901L9.16733 4.95838C9.33778 5.11947 9.473 5.31077 9.56526 5.52134C9.65752 5.73191 9.70501 5.95762 9.70501 6.18557C9.70501 6.41352 9.65752 6.63923 9.56526 6.8498C9.473 7.06037 9.33778 7.25167 9.16733 7.41277L8.1957 8.33208C7.85286 8.65725 7.66032 9.0978 7.66032 9.5571C7.66032 10.0164 7.85286 10.457 8.1957 10.7821L10.7898 13.2365C11.1334 13.5609 11.5991 13.7431 12.0845 13.7431C12.57 13.7431 13.0356 13.5609 13.3793 13.2365L14.3509 12.3172C14.5212 12.1559 14.7233 12.028 14.9459 11.9407C15.1684 11.8534 15.407 11.8085 15.6479 11.8085C15.8888 11.8085 16.1274 11.8534 16.35 11.9407C16.5725 12.028 16.7747 12.1559 16.945 12.3172L20.5107 15.6909C20.8056 15.9761 20.9876 16.3487 21.026 16.746C21.0644 17.1434 20.9568 17.5411 20.7215 17.8721Z" fill="#FF914C"/>
  <path d="M17.2473 12.0094C16.8175 11.603 16.2348 11.3746 15.6271 11.3746C15.0195 11.3746 14.4367 11.603 14.007 12.0094L13.0308 12.9287C12.7729 13.1724 12.4235 13.3092 12.0591 13.3092C11.6948 13.3092 11.3453 13.1724 11.0875 12.9287L8.498 10.4787C8.24052 10.2348 8.0959 9.90413 8.0959 9.55938C8.0959 9.21464 8.24052 8.88399 8.498 8.64007C9.41464 7.7728 10.1388 7.27845 10.1388 6.18568C10.1388 4.98884 9.61171 4.78937 5.90394 1.27691C5.4742 0.870433 4.89143 0.64209 4.28379 0.64209C3.67614 0.64209 3.09338 0.870433 2.66364 1.27691L2.01283 1.88833C0.724016 3.10812 0 4.76228 0 6.48706C0 8.21184 0.724016 9.866 2.01283 11.0858L10.4413 19.0647C11.7305 20.2841 13.4788 20.9692 15.3017 20.9692C17.1246 20.9692 18.8729 20.2841 20.1622 19.0647L20.813 18.449C21.2426 18.0424 21.4839 17.491 21.4839 16.916C21.4839 16.3411 21.2426 15.7897 20.813 15.3831L17.2473 12.0094ZM20.1667 17.8375C19.5613 18.5039 18.833 19.0608 18.0172 19.481L14.3507 16.0119C14.2638 15.928 14.1452 15.8801 14.021 15.8789C13.8968 15.8777 13.7772 15.9232 13.6884 16.0054C13.5997 16.0876 13.5491 16.1999 13.5478 16.3174C13.5465 16.4349 13.5947 16.5481 13.6816 16.632L17.096 19.8409C16.0558 20.1515 14.9454 20.186 13.8859 19.9405C12.8263 19.6951 11.8584 19.1791 11.0875 18.449L2.66364 10.4787C1.89189 9.74931 1.34658 8.83347 1.08716 7.83101C0.827733 6.82854 0.864153 5.77793 1.19245 4.79371L4.6069 8.02431C4.69458 8.09535 4.80736 8.13247 4.92271 8.12825C5.03805 8.12404 5.14747 8.0788 5.22909 8.00157C5.31072 7.92434 5.35853 7.82081 5.36299 7.71168C5.36744 7.60254 5.32821 7.49583 5.25313 7.41288L1.5866 3.94378C2.02465 3.1655 2.60856 2.46903 3.30987 1.88833C3.56767 1.64472 3.91713 1.50788 4.2815 1.50788C4.64586 1.50788 4.99532 1.64472 5.25313 1.88833C9.06632 5.4962 9.22215 5.45717 9.22215 6.18135C9.22215 6.90552 8.72258 7.19172 7.8472 8.01997C7.41759 8.42657 7.17625 8.97795 7.17625 9.55288C7.17625 10.1278 7.41759 10.6792 7.8472 11.0858L10.4413 13.5402C10.871 13.9466 11.4538 14.175 12.0614 14.175C12.6691 14.175 13.2518 13.9466 13.6816 13.5402L14.6669 12.6252C14.9292 12.3897 15.277 12.2585 15.6386 12.2585C16.0001 12.2585 16.3479 12.3897 16.6102 12.6252L20.1667 15.9989C20.4242 16.2428 20.5688 16.5735 20.5688 16.9182C20.5688 17.263 20.4242 17.5936 20.1667 17.8375Z" fill="black"/>
  <path d="M16.5005 8.3928C16.5005 8.50781 16.5488 8.61811 16.6348 8.69943C16.7207 8.78075 16.8373 8.82644 16.9588 8.82644C17.0804 8.82644 17.197 8.78075 17.2829 8.69943C17.3689 8.61811 17.4171 8.50781 17.4171 8.3928C17.4171 4.89768 12.834 3.71819 12.834 4.9237C12.834 5.03871 12.8823 5.14901 12.9682 5.23033C13.0542 5.31165 13.1707 5.35734 13.2923 5.35734C14.1432 5.35734 14.9592 5.67715 15.5609 6.24641C16.1625 6.81567 16.5005 7.58775 16.5005 8.3928Z" fill="black"/>
  <path d="M13.2923 0.153809C13.1707 0.153809 13.0542 0.199495 12.9682 0.280818C12.8823 0.362141 12.834 0.472438 12.834 0.587446C12.834 0.702454 12.8823 0.812752 12.9682 0.894074C13.0542 0.975397 13.1707 1.02108 13.2923 1.02108C14.3155 1.02108 15.3286 1.21176 16.2739 1.58223C17.2192 1.9527 18.0781 2.49571 18.8016 3.18025C19.5251 3.86478 20.099 4.67745 20.4906 5.57184C20.8821 6.46624 21.0837 7.42484 21.0837 8.39292C21.0837 8.50793 21.132 8.61823 21.2179 8.69955C21.3039 8.78088 21.4204 8.82656 21.542 8.82656C21.6635 8.82656 21.7801 8.78088 21.8661 8.69955C21.952 8.61823 22.0003 8.50793 22.0003 8.39292C22.0003 6.20778 21.0829 4.11212 19.4498 2.56699C17.8167 1.02186 15.6018 0.153809 13.2923 0.153809Z" fill="black"/>
</svg>