<svg xmlns="http://www.w3.org/2000/svg" width="25" height="24" viewBox="0 0 25 24" fill="none">
  <path fill-rule="evenodd" clip-rule="evenodd" d="M12.25 1.61726C6.42854 1.61726 1.7093 6.08239 1.7093 11.5904C1.7093 17.0984 6.42854 21.5635 12.25 21.5635C12.6063 21.5635 12.9583 21.5468 13.3051 21.5142C13.7748 21.4701 14.1934 21.7946 14.24 22.239C14.2867 22.6834 13.9437 23.0794 13.474 23.1236C13.0711 23.1615 12.6629 23.1808 12.25 23.1808C5.48451 23.1808 0 17.9916 0 11.5904C0 5.18919 5.48451 0 12.25 0C19.0155 0 24.5 5.18919 24.5 11.5904C24.5 11.981 24.4796 12.3673 24.4396 12.7485C24.3929 13.1929 23.9743 13.5174 23.5046 13.4732C23.0349 13.4291 22.692 13.0331 22.7386 12.5887C22.773 12.2606 22.7907 11.9275 22.7907 11.5904C22.7907 6.08239 18.0714 1.61726 12.25 1.61726Z" fill="black"/>
  <path fill-rule="evenodd" clip-rule="evenodd" d="M12.2402 7.00813C11.1355 7.00813 10.242 7.85397 10.242 8.89494C10.242 9.93592 11.1355 10.7817 12.2402 10.7817C13.345 10.7817 14.2385 9.93592 14.2385 8.89494C14.2385 7.85397 13.345 7.00813 12.2402 7.00813ZM8.5327 8.89494C8.5327 6.95861 10.1937 5.39087 12.2402 5.39087C14.2867 5.39087 15.9478 6.95861 15.9478 8.89494C15.9478 10.8312 14.2867 12.399 12.2402 12.399C10.1937 12.399 8.5327 10.8312 8.5327 8.89494ZM13.2656 15.8343C11.2557 15.5556 9.12755 16.1648 7.74014 17.5396C7.41419 17.8627 6.87319 17.8745 6.5318 17.5662C6.19041 17.2577 6.17788 16.7459 6.50384 16.4229C8.31276 14.6303 11.0134 13.8874 13.5133 14.2341C13.9804 14.2989 14.3035 14.7095 14.2351 15.1514C14.1666 15.5933 13.7325 15.899 13.2656 15.8343Z" fill="black"/>
  <path fill-rule="evenodd" clip-rule="evenodd" d="M19.657 15.6336C17.9263 15.6336 16.5233 16.9611 16.5233 18.5986C16.5233 20.2361 17.9263 21.5636 19.657 21.5636C21.3877 21.5636 22.7907 20.2361 22.7907 18.5986C22.7907 16.9611 21.3877 15.6336 19.657 15.6336ZM14.814 18.5986C14.814 16.0679 16.9823 14.0164 19.657 14.0164C22.3317 14.0164 24.5 16.0679 24.5 18.5986C24.5 21.1293 22.3317 23.1808 19.657 23.1808C16.9823 23.1808 14.814 21.1293 14.814 18.5986Z" fill="#FF914C"/>
</svg>